<svg width="322" height="74" viewBox="0 0 322 74" fill="none" xmlns="http://www.w3.org/2000/svg">
<g clip-path="url(#clip0_3792_2281)">
<path d="M0 23.9146C0 38.1281 10.7258 47.8293 24.6244 47.8293C34.7157 47.8293 40.5903 42.2095 43.8449 36.4667L35.4116 32.3647C33.467 36.1181 29.3323 39.092 24.6244 39.092C16.1911 39.092 10.0913 32.6519 10.0913 23.9146C10.0913 15.1774 16.1706 8.73725 24.6244 8.73725C29.3323 8.73725 33.467 11.7112 35.4116 15.4645L43.8449 11.301C40.5903 5.47617 34.7157 0 24.6244 0C10.7258 0 0 9.63969 0 23.9146Z" fill="url(#paint0_linear_3792_2281)"/>
<path d="M67.9164 13.5161V36.1796C66.4017 38.1075 63.6998 39.9945 60.3019 39.9945C56.5765 39.9945 54.1611 38.4767 54.1611 33.821V13.5161H45.3799V37.2871C45.3799 43.8093 48.8392 47.8088 56.1671 47.8088C61.6324 47.8088 65.6443 45.245 67.9164 42.7428V46.9679H76.6977V13.5161H67.9164Z" fill="url(#paint1_linear_3792_2281)"/>
<path d="M79.5432 23.2173C79.5432 36.3847 99.3164 31.8725 99.3164 37.3487C99.3164 39.4202 97.5151 40.8764 93.7078 40.8764C89.5526 40.8764 84.64 38.5998 82.1632 36.2411L78.356 42.6197C81.8766 45.8808 87.4852 47.8088 93.2984 47.8088C102.571 47.8088 107.832 43.3171 107.832 37.1436C107.832 23.6275 87.9765 27.791 87.9765 22.8686C87.9765 21.0022 90.0438 19.6075 93.237 19.6075C97.3104 19.6075 101.118 21.4124 103.124 23.4839L106.644 17.2489C103.328 14.6236 98.8251 12.6752 93.237 12.6752C84.3944 12.6752 79.5432 17.5976 79.5432 23.2173Z" fill="url(#paint2_linear_3792_2281)"/>
<path d="M111.925 4.36862V13.5161H106.398V21.2073H111.925V38.5998C111.925 44.6297 115.18 47.8088 121.341 47.8088C125.005 47.8088 127.359 46.8448 128.669 45.6552L126.806 38.9279C126.315 39.4817 125.087 39.9739 123.756 39.9739C121.832 39.9739 120.706 38.3742 120.706 36.2411V21.2073H127.482V13.5161H120.706V4.36862H111.925Z" fill="url(#paint3_linear_3792_2281)"/>
<path d="M136.325 30.2112C136.325 25.0222 139.374 20.51 144.84 20.51C150.366 20.51 153.416 25.0017 153.416 30.2112C153.416 35.4823 150.366 39.9739 144.84 39.9739C139.374 39.9945 136.325 35.4823 136.325 30.2112ZM127.195 30.2112C127.195 39.7073 133.827 47.8088 144.819 47.8088C155.893 47.8088 162.525 39.7073 162.525 30.2112C162.525 20.7151 155.893 12.6752 144.819 12.6752C133.848 12.6752 127.195 20.7151 127.195 30.2112Z" fill="url(#paint4_linear_3792_2281)"/>
<path d="M193.945 18.7051C192.779 14.9723 189.585 12.6752 184.673 12.6752C179.555 12.6752 175.196 15.8542 173.742 17.8027V13.4956H164.961V46.9678H173.742V24.3864C175.052 22.5815 177.611 20.51 180.661 20.51C184.263 20.51 185.635 22.7251 185.635 25.8426V46.9678H194.498V24.3864C195.747 22.602 198.305 20.51 201.416 20.51C205.019 20.51 206.39 22.7251 206.39 25.8426V46.9678H215.254V22.8071C215.254 15.9568 211.59 12.6957 205.428 12.6957C200.311 12.6752 195.89 15.7312 193.945 18.7051Z" fill="url(#paint5_linear_3792_2281)"/>
<path d="M297.212 70.2262C297.212 69.4673 297.908 68.811 298.706 68.811C299.504 68.811 300.159 69.4673 300.159 70.2262C300.159 71.0261 299.504 71.6824 298.706 71.6824C297.908 71.6824 297.212 71.0261 297.212 70.2262Z" fill="#1E4397"/>
<path d="M314.692 71.3747V68.8315C313.567 70.4723 311.54 71.7644 309.166 71.7644C304.949 71.7644 302.083 68.5238 302.083 63.4168C302.083 58.3714 304.949 55.0283 309.166 55.0283C311.438 55.0283 313.423 56.1768 314.692 58.0022V55.4179H316.432V71.3542H314.692V71.3747ZM314.692 67.3958V59.5199C313.771 58.0022 311.704 56.6075 309.452 56.6075C305.932 56.6075 303.885 59.5815 303.885 63.4373C303.885 67.2932 305.932 70.2262 309.452 70.2262C311.704 70.2262 313.771 68.9135 314.692 67.3958Z" fill="#1E4397"/>
<path d="M319.359 51.6236C319.359 50.9058 319.994 50.3315 320.669 50.3315C321.386 50.3315 321.979 50.8852 321.979 51.6236C321.979 52.3415 321.386 52.9362 320.669 52.9362C319.994 52.9362 319.359 52.3415 319.359 51.6236ZM319.83 71.3747V55.4385H321.55V71.3747H319.83Z" fill="#1E4397"/>
<path d="M222.868 54.5976H0V57.3254H222.868V54.5976Z" fill="url(#paint6_linear_3792_2281)"/>
<path d="M269.681 67.0266C271.891 71.1081 275.617 74 281.123 74C290.784 74 295.083 65.2422 295.083 56.5255C295.083 47.8088 290.784 39.092 281.123 39.092C272.751 39.092 268.412 45.6552 267.409 53.0798C269.456 55.3564 270.684 58.3714 270.684 61.9196C270.663 63.7655 270.295 65.4678 269.681 67.0266ZM281.123 45.4911C285.974 45.4911 287.755 50.311 287.755 56.546C287.755 62.781 285.933 67.6419 281.123 67.6419C276.333 67.6419 274.491 62.781 274.491 56.546C274.491 50.2905 276.313 45.4911 281.123 45.4911Z" fill="#EA4648"/>
<path d="M234.965 12.6752C224.874 12.6752 217.669 20.51 217.669 30.2112C217.669 33.903 218.631 37.1026 220.248 39.7689C222.336 38.4357 225.058 37.3487 228.497 36.9795C227.658 35.8514 227.105 34.5388 226.88 33.1236H251.709V31.0521C251.709 20.1613 244.995 12.6752 234.965 12.6752ZM226.819 27.0322C227.167 23.7095 229.521 19.8947 234.986 19.8947C240.799 19.8947 243.01 23.8531 243.276 27.0322H226.819Z" fill="url(#paint7_linear_3792_2281)"/>
<path d="M267.163 56.6691C266.856 56.0743 266.529 55.5205 266.119 55.0283C265.792 54.6181 265.444 54.2284 265.075 53.9002C262.947 51.9518 259.999 50.9468 256.888 50.9468C253.203 50.9468 249.805 53.0183 248.25 55.2949C248.188 55.0488 248.188 54.8437 248.188 54.5771C248.188 49.2034 251.668 44.9989 256.642 44.9989C259.631 44.9989 261.555 45.9218 263.356 47.6447L266.59 42.1275C264.175 39.9945 260.715 38.6408 256.622 38.6408C251.627 38.6408 247.677 40.4662 244.995 43.5837C244.709 43.9324 244.483 44.3426 244.217 44.7118C243.951 45.0809 243.665 45.4501 243.419 45.8603C242.109 48.1164 241.352 50.8442 241.065 53.8592C241.024 54.3309 240.983 54.8027 240.963 55.2949C240.963 55.582 240.901 55.8282 240.901 56.1153C240.901 56.2179 240.922 56.3204 240.922 56.4435C240.922 56.9152 240.983 57.3459 241.004 57.7971C241.208 61.3864 242.068 64.6475 243.665 67.2727C243.91 67.6829 244.135 68.1136 244.422 68.5033C244.647 68.811 244.954 69.0571 245.2 69.3442C247.554 71.9285 250.87 73.5488 255.455 73.5488C260.92 73.5488 265.096 70.985 267.102 67.1702C267.347 66.6779 267.552 66.1857 267.736 65.673C267.962 65.0371 268.125 64.3808 268.228 63.6835C268.31 63.1092 268.412 62.5554 268.412 61.9606C268.412 59.8891 267.941 58.1458 267.163 56.6691ZM255.066 67.1497C250.358 67.1497 248.557 63.5604 248.25 60.3199C249.867 58.2894 252.344 57.1203 254.861 57.1203C258.055 57.1203 261.084 58.638 261.084 62.1863C261.084 64.5039 258.955 67.1497 255.066 67.1497Z" fill="#EA4648"/>
<path d="M262.701 18.0283V13.5161H253.92V36.6103C254.8 36.4873 255.68 36.3642 256.642 36.3642C258.771 36.3642 260.818 36.7129 262.722 37.3692V24.8991C264.175 22.7456 268.044 21.0843 270.95 21.0843C271.994 21.0843 272.752 21.1458 273.366 21.2894V12.6752C269.21 12.6752 265.117 15.1159 262.701 18.0283Z" fill="url(#paint8_linear_3792_2281)"/>
<path d="M238.691 56.5255C238.691 56.3819 238.711 56.2178 238.711 56.0743C238.711 55.7871 238.732 55.5615 238.732 55.2744C238.875 50.5776 240.124 46.5987 242.273 43.5017C240.267 40.7328 236.378 39.1125 231.076 39.1125C225.161 39.1125 220.924 41.3891 218.181 44.4861L221.763 48.9983C224.137 46.7217 227.064 45.5116 230.36 45.5116C233.84 45.5116 236.623 46.8243 236.623 49.5111C236.623 51.9928 234.085 53.1003 230.36 53.1003C229.091 53.1003 226.757 53.1003 226.164 53.0593V59.5405C226.655 59.4789 228.948 59.4379 230.36 59.4379C235.068 59.4379 237.135 60.648 237.135 63.3348C237.135 65.878 234.863 67.6419 230.769 67.6419C227.474 67.6419 223.789 66.2267 221.517 63.786L217.73 68.6059C220.207 71.6413 224.854 74.0205 231.035 74.0205C236.296 74.0205 240.287 72.2771 242.478 69.4673C240.103 66.2062 238.752 61.8376 238.691 56.5255Z" fill="#EA4648"/>
</g>
<defs>
<linearGradient id="paint0_linear_3792_2281" x1="32.1992" y1="23.9095" x2="271.619" y2="23.9095" gradientUnits="userSpaceOnUse">
<stop stop-color="#204496"/>
<stop offset="1" stop-color="#449BD5"/>
</linearGradient>
<linearGradient id="paint1_linear_3792_2281" x1="32.199" y1="30.6655" x2="271.619" y2="30.6655" gradientUnits="userSpaceOnUse">
<stop stop-color="#204496"/>
<stop offset="1" stop-color="#449BD5"/>
</linearGradient>
<linearGradient id="paint2_linear_3792_2281" x1="32.1993" y1="30.2516" x2="271.619" y2="30.2516" gradientUnits="userSpaceOnUse">
<stop stop-color="#204496"/>
<stop offset="1" stop-color="#449BD5"/>
</linearGradient>
<linearGradient id="paint3_linear_3792_2281" x1="32.199" y1="26.0922" x2="271.619" y2="26.0922" gradientUnits="userSpaceOnUse">
<stop stop-color="#204496"/>
<stop offset="1" stop-color="#449BD5"/>
</linearGradient>
<linearGradient id="paint4_linear_3792_2281" x1="32.1993" y1="30.2516" x2="271.619" y2="30.2516" gradientUnits="userSpaceOnUse">
<stop stop-color="#204496"/>
<stop offset="1" stop-color="#449BD5"/>
</linearGradient>
<linearGradient id="paint5_linear_3792_2281" x1="32.1993" y1="29.8355" x2="271.62" y2="29.8355" gradientUnits="userSpaceOnUse">
<stop stop-color="#204496"/>
<stop offset="1" stop-color="#449BD5"/>
</linearGradient>
<linearGradient id="paint6_linear_3792_2281" x1="0.0133707" y1="55.9749" x2="222.872" y2="55.9749" gradientUnits="userSpaceOnUse">
<stop stop-color="#204496"/>
<stop offset="1" stop-color="#449BD5"/>
</linearGradient>
<linearGradient id="paint7_linear_3792_2281" x1="32.1993" y1="26.2261" x2="271.619" y2="26.2261" gradientUnits="userSpaceOnUse">
<stop stop-color="#204496"/>
<stop offset="1" stop-color="#449BD5"/>
</linearGradient>
<linearGradient id="paint8_linear_3792_2281" x1="32.1995" y1="25.0214" x2="271.62" y2="25.0214" gradientUnits="userSpaceOnUse">
<stop stop-color="#204496"/>
<stop offset="1" stop-color="#449BD5"/>
</linearGradient>
<clipPath id="clip0_3792_2281">
<rect width="322" height="74" fill="white"/>
</clipPath>
</defs>
</svg>
