<svg xmlns="http://www.w3.org/2000/svg" width="215" height="63" viewBox="0 0 215 63" fill="none">
  <path d="M52.8757 67.4659L52.9003 68.3028L52.9004 68.3028L52.8757 67.4659ZM107.037 40.9741L106.574 41.6715L106.574 41.6715L107.037 40.9741ZM132.615 34.718L132.656 35.5542L132.656 35.5542L132.615 34.718ZM208.578 40.9741L201.707 34.1734L199.253 43.524L208.578 40.9741ZM-10 73.3226C-6.5887 73.3226 -3.63456 72.0181 -0.966051 70.0777C1.68977 68.1466 4.10692 65.5522 6.44721 62.9143C8.80869 60.2526 11.0862 57.554 13.5266 55.2923C15.9609 53.0364 18.4888 51.2831 21.3 50.483L20.8416 48.8726C17.6697 49.7753 14.9131 51.7244 12.3885 54.0642C9.86996 56.3982 7.51412 59.1887 5.19467 61.8031C2.85402 64.4414 0.542651 66.9104 -1.95079 68.7235C-4.43154 70.5274 -7.0474 71.6482 -10 71.6482V73.3226ZM21.3 50.483C24.004 49.7134 26.3747 50.3362 28.6901 51.7874C31.0431 53.2622 33.2704 55.549 35.6457 58.0277C37.9898 60.4738 40.4667 63.0936 43.2427 65.0633C46.0363 67.0456 49.1891 68.4123 52.9003 68.3028L52.851 66.6291C49.615 66.7245 46.8143 65.5445 44.2117 63.6978C41.5914 61.8385 39.2292 59.347 36.8547 56.8692C34.5113 54.4239 32.1405 51.9739 29.5793 50.3687C26.9805 48.7398 24.1208 47.9393 20.8416 48.8726L21.3 50.483ZM52.9004 68.3028C58.0477 68.1507 61.608 64.8034 64.2747 60.1339C66.9358 55.4743 68.8195 49.3118 70.5675 43.1549C72.329 36.9501 73.9534 30.7505 76.0943 25.8409C78.2514 20.8943 80.8083 17.5607 84.2558 16.6884L83.845 15.0651C79.5777 16.1449 76.7421 20.1664 74.5595 25.1716C72.3608 30.2138 70.6984 36.5628 68.9567 42.6976C67.2014 48.8802 65.3653 54.848 62.8207 59.3036C60.2818 63.7493 57.1505 66.5021 52.8509 66.6291L52.9004 68.3028ZM84.2558 16.6884C87.8718 15.7734 90.5431 16.5219 92.6766 18.1739C94.8608 19.8652 96.5416 22.5511 98.0085 25.6181C98.7379 27.143 99.4036 28.7382 100.05 30.3226C100.693 31.8992 101.321 33.4748 101.963 34.9249C102.605 36.3754 103.275 37.7337 104.014 38.8833C104.75 40.0286 105.584 41.0138 106.574 41.6715L107.501 40.2766C106.78 39.798 106.095 39.0247 105.422 37.9779C104.752 36.9352 104.123 35.6677 103.494 34.2473C102.865 32.8265 102.252 31.286 101.6 29.69C100.952 28.1018 100.271 26.4679 99.5191 24.8956C98.0233 21.7684 96.2049 18.7882 93.7017 16.85C91.1478 14.8724 87.9437 14.028 83.845 15.0651L84.2558 16.6884ZM106.574 41.6715C109.187 43.4067 111.283 44.0062 113.22 43.7587C115.118 43.5162 116.708 42.4717 118.304 41.3241C121.513 39.0163 125.208 35.9255 132.656 35.5542L132.573 33.8818C124.582 34.2802 120.526 37.6637 117.326 39.9647C115.718 41.1214 114.438 41.915 113.008 42.0978C111.617 42.2755 109.926 41.8877 107.501 40.2766L106.574 41.6715ZM132.656 35.5542C138.775 35.2489 143.29 33.6186 146.787 31.2993C150.275 28.9859 152.702 26.0194 154.691 23.1234C155.682 21.6812 156.578 20.2343 157.429 18.9089C158.287 17.5715 159.104 16.351 159.964 15.3015C161.674 13.2151 163.486 11.8883 165.999 11.7108L165.882 10.0405C162.727 10.2633 160.531 11.9678 158.669 14.2402C157.743 15.3703 156.882 16.6612 156.02 18.0043C155.15 19.3593 154.282 20.7619 153.311 22.1754C151.377 24.9907 149.094 27.76 145.861 29.9039C142.637 32.0419 138.42 33.5902 132.573 33.8818L132.656 35.5542ZM165.999 11.7108C168.084 11.5636 170.445 12.6546 173.125 14.7112C175.783 16.7504 178.601 19.6177 181.584 22.7666C184.55 25.8976 187.672 29.3005 190.886 32.3325C194.1 35.3641 197.454 38.0738 200.915 39.8098L201.666 38.3131C198.42 36.6851 195.205 34.1047 192.035 31.1145C188.866 28.1248 185.793 24.7744 182.8 21.6151C179.824 18.4737 176.921 15.5135 174.145 13.3828C171.391 11.2695 168.606 9.84811 165.882 10.0405L165.999 11.7108Z" fill="url(#paint0_linear_54_425)"/>
  <defs>
    <linearGradient id="paint0_linear_54_425" x1="-10" y1="43.9708" x2="205.398" y2="43.9708" gradientUnits="userSpaceOnUse">
      <stop offset="0.284" stop-color="white" stop-opacity="0.5"/>
      <stop offset="1" stop-color="#FF3333"/>
    </linearGradient>
  </defs>
</svg>