<svg xmlns="http://www.w3.org/2000/svg" width="215" height="96" viewBox="0 0 215 96" fill="none">
  <path opacity="0.09" d="M-4 95.6277C7.78054 70.6447 19.0252 63.9777 27.3775 66.3107C35.7308 68.6437 47.9383 79.9777 61.7534 57.6437C75.5676 35.3107 92.3541 41.6787 97.5673 47.0367C104.554 54.2167 114.522 71.5697 124.721 71.5697C137.653 71.5697 149.137 33.3107 163.594 30.6437C178.051 27.9767 188.004 48.417 197 49C202.489 49.356 215.754 78.9998 215.754 78.9998V95.6267L-4 95.6277Z" fill="url(#paint0_linear_44_2763)"/>
  <path d="M40.1477 80.6453L40.1823 81.6447L40.1823 81.6447L40.1477 80.6453ZM95.4053 48.9783L94.7912 49.7675L94.7912 49.7675L95.4053 48.9783ZM121.5 41.5002L121.558 42.4984L121.558 42.4984L121.5 41.5002ZM199 48.9783L191.446 40.2449L187.66 51.1535L199 48.9783ZM-24 87.6453C-20.4313 87.6453 -17.3677 86.0455 -14.6371 83.7191C-11.9179 81.4025 -9.44761 78.295 -7.06175 75.1441C-4.65125 71.9607 -2.32962 68.7377 0.157575 66.037C2.64318 63.3381 5.20014 61.2698 8.01575 60.3309L7.38309 58.4336C4.09446 59.5303 1.26004 61.8876 -1.31359 64.6822C-3.88562 67.4749 -6.29107 70.8133 -8.65621 73.9367C-11.046 77.0928 -13.3999 80.0377 -15.9341 82.1967C-18.457 84.3461 -21.0761 85.6453 -24 85.6453V87.6453ZM8.01575 60.3309C10.6647 59.4476 12.9964 60.1451 15.3346 61.8621C17.7198 63.6137 19.9847 66.3365 22.4118 69.304C24.8007 72.2248 27.333 75.3636 30.1749 77.7262C33.0337 80.1028 36.3035 81.7788 40.1823 81.6447L40.1132 79.6459C36.9041 79.7568 34.1001 78.3885 31.4534 76.1882C28.7899 73.9738 26.3851 71.0029 23.96 68.0378C21.5731 65.1195 19.1468 62.1802 16.5184 60.2501C13.8429 58.2854 10.8384 57.2814 7.38309 58.4336L8.01575 60.3309ZM40.1823 81.6447C45.5838 81.4578 49.2386 77.3539 51.9346 71.8229C54.6451 66.2621 56.5644 58.9067 58.3477 51.5473C60.1438 44.1348 61.8032 36.7142 63.9904 30.8377C65.082 27.9045 66.285 25.4145 67.6643 23.5315C69.0416 21.6511 70.5484 20.4378 72.2374 19.9371L71.6689 18.0195C69.4224 18.6856 67.5861 20.2535 66.0508 22.3497C64.5173 24.4433 63.238 27.1252 62.116 30.1401C59.8757 36.1593 58.1819 43.7388 56.4039 51.0763C54.6131 58.4669 52.7373 65.6115 50.1368 70.9466C47.5218 76.3114 44.3497 79.4993 40.1131 79.6459L40.1823 81.6447ZM72.2374 19.9371C74.0635 19.3956 75.6182 19.3602 76.9645 19.6779C78.3119 19.9957 79.5116 20.6816 80.6049 21.6735C82.8206 23.6837 84.5371 26.891 86.0384 30.5687C87.5559 34.2861 88.7348 38.1507 90.0737 41.6958C90.7277 43.4274 91.4097 45.0477 92.162 46.419C92.9091 47.7806 93.763 48.9674 94.7912 49.7675L96.0195 48.1891C95.3022 47.631 94.6061 46.7157 93.9154 45.4569C93.2301 44.2077 92.5868 42.6892 91.9447 40.9891C90.6914 37.6706 89.3951 33.4997 87.8901 29.8128C86.3688 26.0863 84.5152 22.5206 81.9487 20.1923C80.6509 19.0149 79.1565 18.1401 77.4237 17.7313C75.6898 17.3223 73.7782 17.3942 71.6689 18.0195L72.2374 19.9371ZM94.7912 49.7675C97.4649 51.8481 99.67 52.615 101.753 52.3032C103.766 52.0017 105.43 50.7101 107.045 49.349C110.335 46.5773 114.054 42.9367 121.558 42.4984L121.442 40.5019C113.194 40.9836 109.006 45.0821 105.757 47.8195C104.103 49.2128 102.839 50.1183 101.457 50.3252C100.144 50.5218 98.4861 50.1085 96.0194 48.1891L94.7912 49.7675ZM121.558 42.4984C127.857 42.1303 132.506 40.1618 136.1 37.3692C139.676 34.5906 142.156 31.0354 144.182 27.5797C145.192 25.8563 146.106 24.1275 146.974 22.5426C147.851 20.9433 148.684 19.4839 149.561 18.2295C151.319 15.7168 153.132 14.1996 155.582 13.9968L155.418 12.0036C152.085 12.2794 149.809 14.3855 147.922 17.0833C146.977 18.4342 146.1 19.9768 145.22 21.5815C144.333 23.2007 143.447 24.8781 142.456 26.5682C140.48 29.9394 138.154 33.2406 134.873 35.79C131.61 38.3254 127.351 40.1565 121.442 40.5019L121.558 42.4984ZM155.582 13.9968C157.534 13.8353 159.811 14.9992 162.472 17.3483C165.095 19.6633 167.88 22.9364 170.83 26.5716C173.761 30.1822 176.852 34.1442 180.027 37.7331C183.203 41.3219 186.521 44.606 189.95 46.8631L191.05 45.1926C187.843 43.0815 184.663 39.9542 181.525 36.4077C178.387 32.8613 175.349 28.9642 172.383 25.3111C169.438 21.6825 166.558 18.2874 163.796 15.8489C161.072 13.4445 158.244 11.7697 155.418 12.0036L155.582 13.9968Z" fill="url(#paint1_linear_44_2763)"/>
  <defs>
    <linearGradient id="paint0_linear_44_2763" x1="82.7563" y1="42.5" x2="82.7563" y2="91" gradientUnits="userSpaceOnUse">
      <stop stop-color="#FF3623"/>
      <stop offset="1" stop-color="white"/>
    </linearGradient>
    <linearGradient id="paint1_linear_44_2763" x1="-24" y1="52.5604" x2="195.755" y2="52.5604" gradientUnits="userSpaceOnUse">
      <stop offset="0.284" stop-color="white" stop-opacity="0.5"/>
      <stop offset="1" stop-color="#FF3333"/>
    </linearGradient>
  </defs>
</svg>