<svg width="294" height="198" viewBox="0 0 294 198" fill="none" xmlns="http://www.w3.org/2000/svg">
<path d="M286.772 133.768C286.434 134.657 286.078 135.538 285.707 136.41C271.502 170.305 238.631 194.03 200.363 194.03H107.5V3.72724H165.343V134.759C165.343 134.759 239.316 133.718 286.772 133.768Z" fill="url(#paint0_linear_286_145)"/>
<path d="M52.8129 3.50201C51.5725 1.47601 49.3797 0.125 46.8726 0.125C42.9992 0.125 39.8588 3.343 39.8588 7.312C39.8588 11.281 42.9992 14.5 46.8726 14.5C49.3787 14.5 51.5716 13.149 52.8119 11.123H117V3.825L52.8129 3.50201Z" fill="url(#paint1_linear_286_145)"/>
<path d="M70.2844 110.369L65.0018 115.782C63.7468 117.068 62.0439 117.791 60.2687 117.791H34.1477C32.9708 115.514 30.6374 113.961 27.9478 113.961C24.0745 113.961 20.934 117.179 20.934 121.149C20.934 125.118 24.0745 128.336 27.9478 128.336C30.2617 128.336 32.3081 127.182 33.5856 125.412H63.3487C65.1238 125.412 66.8258 124.689 68.0818 123.403L73.3643 117.99C74.6194 116.704 76.3223 115.981 78.0975 115.981H107.523V108.36H75.0166C73.2414 108.36 71.5394 109.083 70.2844 110.369Z" fill="url(#paint2_linear_286_145)"/>
<path d="M52.5151 147.693L49.7729 144.883C48.5715 143.651 46.9408 142.959 45.2417 142.959H26.8743C25.6339 140.933 23.4411 139.582 20.934 139.582C17.0606 139.582 13.9192 142.8 13.9192 146.77C13.9192 150.739 17.0596 153.957 20.934 153.957C23.4401 153.957 25.6329 152.606 26.8733 150.58H42.1599C43.8599 150.58 45.4896 151.272 46.6919 152.504L49.4342 155.314C50.6356 156.546 52.2663 157.238 53.9653 157.238H107.523V149.617H57.0463C55.3472 149.617 53.7165 148.925 52.5151 147.693Z" fill="url(#paint3_linear_286_145)"/>
<path d="M67.7354 45.5373C63.8611 45.5373 60.7206 48.7553 60.7206 52.7253C60.7206 56.6943 63.8611 59.9123 67.7354 59.9123C70.2415 59.9123 72.4344 58.5613 73.6747 56.5353H107.523V48.9143H73.6747C72.4344 46.8893 70.2415 45.5373 67.7354 45.5373Z" fill="url(#paint4_linear_286_145)"/>
<path d="M45.272 86.2783C41.3987 86.2783 38.2572 89.4963 38.2572 93.4653C38.2572 97.4353 41.3977 100.653 45.272 100.653C47.7781 100.653 49.971 99.3023 51.2113 97.2763H107.522V89.6553H51.2113C49.972 87.6293 47.7781 86.2783 45.272 86.2783Z" fill="url(#paint5_linear_286_145)"/>
<path d="M87.7666 126.998C83.8933 126.998 80.7528 130.216 80.7528 134.185C80.7528 138.154 83.8933 141.372 87.7666 141.372C90.1595 141.372 92.2704 140.142 93.5361 138.267H107.523V130.646H93.868C92.6627 128.47 90.384 126.998 87.7666 126.998Z" fill="url(#paint6_linear_286_145)"/>
<path d="M60.0697 164.673C56.1963 164.673 53.0549 167.891 53.0549 171.86C53.0549 175.83 56.1954 179.048 60.0697 179.048C62.5758 179.048 64.7687 177.697 66.009 175.671H107.522V168.05H66.009C64.7696 166.024 62.5758 164.673 60.0697 164.673Z" fill="url(#paint7_linear_286_145)"/>
<path d="M53.0559 183.019C49.1825 183.019 46.042 186.237 46.042 190.206C46.042 194.176 49.1825 197.394 53.0559 197.394C55.562 197.394 57.7558 196.043 58.9962 194.016H107.523V186.395H58.9952C57.7548 184.37 55.562 183.019 53.0559 183.019Z" fill="url(#paint8_linear_286_145)"/>
<path d="M200.386 3.72723H107.523V194.031H200.386C227.861 194.031 252.544 181.804 269.541 162.372C276.838 154.032 282.721 144.362 286.795 133.769C287.472 131.999 288.109 130.213 288.679 128.392C291.645 119.103 293.24 109.188 293.24 98.8832V98.8752C293.241 46.3262 251.668 3.72723 200.386 3.72723ZM200.386 134.759H165.366V62.9982H200.386C219.689 62.9982 235.397 79.0952 235.397 98.8832C235.397 111.101 229.406 121.914 220.267 128.392C214.616 132.405 207.765 134.759 200.386 134.759Z" fill="url(#paint9_linear_286_145)"/>
<path opacity="0.57" d="M200.386 3.72723H107.523V5.55623H198.179C249.461 5.55623 291.035 48.1552 291.035 100.704V100.712C291.035 113.032 288.754 124.793 284.59 135.597C278.855 150.483 269.575 163.539 257.8 173.658C270.624 163.311 280.722 149.577 286.796 133.768C290.96 122.964 293.241 111.202 293.241 98.8822V98.8742C293.241 46.3262 251.668 3.72723 200.386 3.72723Z" fill="#204496"/>
<path d="M124.281 65.8862H75.4948C74.1071 65.8862 72.7759 66.4452 71.801 67.4522L67.9999 71.3472C67.025 72.3462 65.6948 72.9132 64.3061 72.9132H12.8604C11.6044 70.9742 9.45649 69.6952 7.01478 69.6952C3.14142 69.6952 0 72.9132 0 76.8832C0 80.8522 3.14045 84.0702 7.01478 84.0702C9.58628 84.0702 11.8279 82.6482 13.0488 80.5342H67.388C68.7757 80.5342 70.0981 79.9672 71.0818 78.9682L74.8741 75.0732C75.8578 74.0652 77.188 73.5072 78.5679 73.5072H118.951C120.058 73.5072 120.959 74.4302 120.959 75.5642V194.031H128.397V70.0942C128.397 67.7742 126.553 65.8862 124.281 65.8862Z" fill="white"/>
<g clip-path="url(#clip0_286_145)">
<path d="M239.809 144.981C237.303 144.981 235.11 146.332 233.869 148.358H150.104C149.013 148.358 148.129 147.452 148.129 146.335V34.8051C148.129 31.8291 145.775 29.4171 142.871 29.4171H85.7233C84.6117 29.4171 83.546 28.9651 82.7604 28.1591L78.5601 23.8551C77.1822 22.4431 75.3133 21.6501 73.3654 21.6501H33.8882C32.6478 19.6241 30.455 18.2731 27.9489 18.2731C24.0755 18.2731 20.9351 21.4911 20.9351 25.4611C20.9351 29.4301 24.0755 32.6491 27.9489 32.6491C30.455 32.6491 32.6488 31.2981 33.8892 29.2721H71.5932C72.7047 29.2721 73.7704 29.7241 74.556 30.5301L78.8773 34.9581C80.1782 36.2911 81.9416 37.0391 83.7812 37.0391H138.28C139.614 37.0391 140.693 38.1461 140.693 39.5111V150.737C140.693 153.632 142.983 155.979 145.809 155.979H233.87C235.11 158.005 237.303 159.356 239.809 159.356C243.684 159.356 246.823 156.138 246.823 152.168C246.823 148.199 243.683 144.981 239.809 144.981Z" fill="white"/>
<path d="M203.716 168.65C201.21 168.65 199.017 170.001 197.777 172.027H160.145C157.836 172.027 155.965 173.945 155.965 176.311V194.031H163.402V181.167C163.402 180.328 164.066 179.647 164.885 179.647H197.776C199.017 181.673 201.209 183.024 203.716 183.024C207.591 183.024 210.73 179.806 210.73 175.837C210.731 171.868 207.591 168.65 203.716 168.65Z" fill="white"/>
</g>
<defs>
<linearGradient id="paint0_linear_286_145" x1="13.9192" y1="98.7598" x2="286.773" y2="98.7598" gradientUnits="userSpaceOnUse">
<stop stop-color="#6F80DA"/>
<stop offset="1" stop-color="#4359A9"/>
</linearGradient>
<linearGradient id="paint1_linear_286_145" x1="46.0415" y1="190.206" x2="112" y2="190.206" gradientUnits="userSpaceOnUse">
<stop offset="0.259" stop-color="#EA4648"/>
<stop offset="1" stop-color="#32478C"/>
</linearGradient>
<linearGradient id="paint2_linear_286_145" x1="46.0415" y1="190.206" x2="112" y2="190.206" gradientUnits="userSpaceOnUse">
<stop offset="0.259" stop-color="#EA4648"/>
<stop offset="1" stop-color="#32478C"/>
</linearGradient>
<linearGradient id="paint3_linear_286_145" x1="46.0415" y1="190.206" x2="112" y2="190.206" gradientUnits="userSpaceOnUse">
<stop offset="0.259" stop-color="#EA4648"/>
<stop offset="1" stop-color="#32478C"/>
</linearGradient>
<linearGradient id="paint4_linear_286_145" x1="46.0415" y1="190.206" x2="112" y2="190.206" gradientUnits="userSpaceOnUse">
<stop offset="0.259" stop-color="#EA4648"/>
<stop offset="1" stop-color="#32478C"/>
</linearGradient>
<linearGradient id="paint5_linear_286_145" x1="46.0415" y1="190.206" x2="112" y2="190.206" gradientUnits="userSpaceOnUse">
<stop offset="0.259" stop-color="#EA4648"/>
<stop offset="1" stop-color="#32478C"/>
</linearGradient>
<linearGradient id="paint6_linear_286_145" x1="46.0415" y1="190.206" x2="112" y2="190.206" gradientUnits="userSpaceOnUse">
<stop offset="0.259" stop-color="#EA4648"/>
<stop offset="1" stop-color="#32478C"/>
</linearGradient>
<linearGradient id="paint7_linear_286_145" x1="46.0415" y1="190.206" x2="112" y2="190.206" gradientUnits="userSpaceOnUse">
<stop offset="0.259" stop-color="#EA4648"/>
<stop offset="1" stop-color="#32478C"/>
</linearGradient>
<linearGradient id="paint8_linear_286_145" x1="46.0415" y1="190.206" x2="112" y2="190.206" gradientUnits="userSpaceOnUse">
<stop offset="0.259" stop-color="#EA4648"/>
<stop offset="1" stop-color="#32478C"/>
</linearGradient>
<linearGradient id="paint9_linear_286_145" x1="107.523" y1="98.8789" x2="338.5" y2="98.8789" gradientUnits="userSpaceOnUse">
<stop stop-color="#444785"/>
<stop offset="0.324" stop-color="#4359AA"/>
<stop offset="0.644" stop-color="#6F80DA"/>
<stop offset="1" stop-color="#D9DAFF"/>
</linearGradient>
<clipPath id="clip0_286_145">
<rect width="140" height="176" fill="white" transform="translate(107 18)"/>
</clipPath>
</defs>
</svg>
