<svg xmlns="http://www.w3.org/2000/svg" width="20" height="20" viewBox="0 0 20 20" fill="none">
  <path d="M1.66699 3.12533C1.66699 2.32033 2.32033 1.66699 3.12533 1.66699H16.8753C17.6803 1.66699 18.3337 2.32033 18.3337 3.12533V16.8753C18.3337 17.2621 18.18 17.633 17.9065 17.9065C17.633 18.18 17.2621 18.3337 16.8753 18.3337H3.12533C2.73855 18.3337 2.36762 18.18 2.09413 17.9065C1.82064 17.633 1.66699 17.2621 1.66699 16.8753V3.12533ZM7.50033 7.50033V17.0837H16.8753C16.9306 17.0837 16.9836 17.0617 17.0226 17.0226C17.0617 16.9836 17.0837 16.9306 17.0837 16.8753V7.50033H7.50033ZM17.0837 6.25033V3.12533C17.0837 3.07007 17.0617 3.01708 17.0226 2.97801C16.9836 2.93894 16.9306 2.91699 16.8753 2.91699H7.50033V6.25033H17.0837ZM2.91699 7.50033V16.8753C2.91699 16.9903 3.01033 17.0837 3.12533 17.0837H6.25033V7.50033H2.91699ZM6.25033 6.25033V2.91699H3.12533C3.07007 2.91699 3.01708 2.93894 2.97801 2.97801C2.93894 3.01708 2.91699 3.07007 2.91699 3.12533V6.25033H6.25033Z" fill="#204496"/>
</svg>