<svg xmlns="http://www.w3.org/2000/svg" width="207" height="63" viewBox="0 0 207 63" fill="none">
  <path d="M49.3913 57.8091L49.4113 58.6461L49.4114 58.6461L49.3913 57.8091ZM104.649 35.9061L104.252 36.6433L104.252 36.6433L104.649 35.9061ZM135.17 22.947L135.203 23.7836L135.203 23.7836L135.17 22.947ZM207 2.02954L197.408 0.82747L201.163 9.73562L207 2.02954ZM-14.7563 62.7963C-7.90176 62.7963 -2.80769 58.5499 1.9493 54.2047C6.79674 49.7769 11.2922 45.2647 17.1312 43.918L16.7549 42.2864C10.3855 43.7554 5.52385 48.6718 0.820025 52.9684C-3.97425 57.3477 -8.62565 61.1219 -14.7563 61.1219V62.7963ZM17.1312 43.918C22.7634 42.619 27.0058 46.0366 31.8889 50.1661C36.6536 54.1954 41.9542 58.8244 49.4113 58.6461L49.3713 56.9721C42.6529 57.1328 37.8336 53.0004 32.9701 48.8876C28.2252 44.8749 23.3311 40.7696 16.7549 42.2864L17.1312 43.918ZM49.4114 58.6461C54.5742 58.5225 58.2073 55.7974 60.9637 51.8861C63.6959 48.0092 65.6264 42.8868 67.4095 37.7969C69.2104 32.6565 70.8602 27.5542 73.034 23.5143C75.2069 19.4762 77.7959 16.7081 81.3649 15.9762L81.0286 14.3359C76.7267 15.2181 73.8141 18.531 71.5595 22.7209C69.306 26.9089 67.6026 32.1816 65.8293 37.2433C64.0383 42.3555 62.1738 47.2623 59.595 50.9216C57.0403 54.5466 53.8465 56.865 49.3713 56.9721L49.4114 58.6461ZM81.3649 15.9762C85.1102 15.2082 87.8841 15.8421 90.0754 17.2172C92.2986 18.6122 94.0007 20.819 95.4868 23.3369C96.2274 24.5916 96.904 25.9054 97.5632 27.2146C98.2182 28.5155 98.8612 29.823 99.518 31.0259C100.813 33.3979 102.267 35.575 104.252 36.6433L105.046 35.1689C103.54 34.3583 102.285 32.5987 100.988 30.2234C100.348 29.0526 99.7244 27.7838 99.0588 26.4617C98.3973 25.1479 97.6996 23.7918 96.9288 22.4859C95.3923 19.8825 93.5244 17.4047 90.9654 15.7989C88.3745 14.1731 85.1542 13.4899 81.0286 14.3359L81.3649 15.9762ZM104.252 36.6433C107.057 38.1529 109.533 38.0764 111.87 37.0746C114.128 36.1064 116.246 34.2743 118.411 32.3686C122.815 28.4917 127.664 24.0881 135.203 23.7836L135.136 22.1105C126.922 22.4423 121.652 27.2848 117.304 31.1117C115.093 33.058 113.177 34.6922 111.21 35.5356C109.321 36.3454 107.381 36.426 105.046 35.1689L104.252 36.6433ZM135.203 23.7836C147.065 23.304 154.238 28.9285 159.954 34.7195C162.776 37.5785 165.355 40.6094 167.871 42.7986C170.421 45.0161 173.122 46.5797 176.34 46.3955L176.244 44.7238C173.679 44.8706 171.401 43.6498 168.97 41.5353C166.507 39.3923 164.107 36.5436 161.146 33.5433C155.295 27.6159 147.69 21.603 135.136 22.1105L135.203 23.7836ZM176.34 46.3955C179.225 46.2304 181.459 43.8745 183.325 40.773C185.221 37.6229 186.913 33.403 188.606 28.9771C190.31 24.5223 192.022 19.8405 193.974 15.6587C195.93 11.4674 198.082 7.88003 200.618 5.57658L199.493 4.33704C196.702 6.87134 194.436 10.7086 192.456 14.9506C190.472 19.202 188.732 23.9618 187.042 28.3788C185.341 32.8246 183.697 36.9065 181.89 39.9098C180.054 42.9617 178.219 44.6108 176.244 44.7238L176.34 46.3955Z" fill="url(#paint0_linear_54_400)"/>
  <defs>
    <linearGradient id="paint0_linear_54_400" x1="-14.7563" y1="38.3838" x2="204.999" y2="38.3838" gradientUnits="userSpaceOnUse">
      <stop offset="0.284" stop-color="white" stop-opacity="0.5"/>
      <stop offset="1" stop-color="#0EC053"/>
    </linearGradient>
  </defs>
</svg>