<svg xmlns="http://www.w3.org/2000/svg" width="215" height="96" viewBox="0 0 215 96" fill="none">
  <path opacity="0.09" d="M-4 95.6278C7.78054 70.6448 19.0252 63.9778 27.3775 66.3108C35.7308 68.6438 47.9383 79.9778 61.7534 57.6438C75.5676 35.3108 92.3541 41.6788 97.5673 47.0368C104.554 54.2168 114.522 71.5698 124.721 71.5698C137.653 71.5698 149.137 33.3108 163.594 30.6438C178.051 27.9768 195.004 9.91713 204 10.5001C209.489 10.8561 215.754 15 215.754 15V95.6268L-4 95.6278Z" fill="url(#paint0_linear_44_2753)"/>
  <path d="M40.1477 80.6451L40.1823 81.6445L40.1823 81.6445L40.1477 80.6451ZM95.4053 48.9781L94.7912 49.7673L94.7912 49.7674L95.4053 48.9781ZM125.926 30.2421L125.984 31.2404L125.984 31.2404L125.926 30.2421ZM197.756 0L186.233 0.733705L192.63 10.3466L197.756 0ZM-24 87.6451C-20.4313 87.6451 -17.3677 86.0453 -14.6371 83.719C-11.9179 81.4024 -9.44761 78.2948 -7.06175 75.1439C-4.65125 71.9606 -2.32962 68.7376 0.157575 66.0369C2.64318 63.3379 5.20014 61.2697 8.01575 60.3308L7.38309 58.4335C4.09446 59.5301 1.26004 61.8875 -1.31359 64.682C-3.88562 67.4748 -6.29107 70.8131 -8.65621 73.9366C-11.046 77.0926 -13.3999 80.0375 -15.9341 82.1966C-18.457 84.346 -21.0761 85.6451 -24 85.6451V87.6451ZM8.01575 60.3308C10.6647 59.4475 12.9964 60.1449 15.3346 61.862C17.7198 63.6135 19.9847 66.3363 22.4118 69.3039C24.8007 72.2247 27.333 75.3634 30.1749 77.726C33.0337 80.1027 36.3035 81.7786 40.1823 81.6445L40.1132 79.6457C36.9041 79.7567 34.1001 78.3884 31.4534 76.1881C28.7899 73.9737 26.3851 71.0028 23.96 68.0377C21.5731 65.1193 19.1468 62.1801 16.5184 60.2499C13.8429 58.2852 10.8384 57.2813 7.38309 58.4335L8.01575 60.3308ZM40.1823 81.6445C45.5838 81.4576 49.2386 77.3538 51.9346 71.8227C54.6451 66.2619 56.5644 58.9065 58.3477 51.5471C60.1438 44.1346 61.8032 36.7141 63.9904 30.8375C65.082 27.9044 66.285 25.4144 67.6643 23.5314C69.0416 21.651 70.5484 20.4376 72.2374 19.9369L71.6689 18.0194C69.4224 18.6854 67.5861 20.2534 66.0508 22.3496C64.5173 24.4432 63.238 27.1251 62.116 30.1399C59.8757 36.1592 58.1819 43.7387 56.4039 51.0761C54.6131 58.4667 52.7373 65.6113 50.1368 70.9464C47.5218 76.3113 44.3497 79.4991 40.1131 79.6457L40.1823 81.6445ZM72.2374 19.9369C74.0635 19.3955 75.6182 19.3601 76.9645 19.6777C78.3119 19.9956 79.5116 20.6815 80.6049 21.6734C82.8206 23.6835 84.5371 26.8909 86.0384 30.5686C87.5559 34.2859 88.7348 38.1506 90.0737 41.6956C90.7277 43.4273 91.4097 45.0476 92.162 46.4188C92.9091 47.7805 93.763 48.9672 94.7912 49.7673L96.0195 48.1889C95.3022 47.6308 94.6061 46.7155 93.9154 45.4568C93.2301 44.2076 92.5868 42.6891 91.9447 40.989C90.6914 37.6705 89.3951 33.4996 87.8901 29.8127C86.3688 26.0862 84.5152 22.5205 81.9487 20.1921C80.6509 19.0147 79.1565 18.1399 77.4237 17.7311C75.6898 17.3221 73.7782 17.394 71.6689 18.0194L72.2374 19.9369ZM94.7912 49.7674C96.1936 50.8586 97.5794 51.4355 98.9715 51.5064C100.364 51.5773 101.644 51.1358 102.823 50.405C105.117 48.9828 107.247 46.3135 109.4 43.573C111.605 40.7667 113.903 37.7876 116.612 35.4383C119.305 33.1041 122.337 31.4535 125.984 31.2404L125.868 29.2438C121.639 29.4908 118.203 31.4122 115.302 33.9272C112.419 36.4272 109.998 39.5746 107.828 42.3373C105.605 45.1658 103.7 47.508 101.769 48.7051C100.836 49.2839 99.9553 49.5539 99.0733 49.509C98.1906 49.464 97.1872 49.0976 96.0194 48.1889L94.7912 49.7674ZM125.984 31.2404C137.605 30.5613 144.708 38.521 150.48 46.9762C153.309 51.1202 155.879 55.4888 158.395 58.6523C160.895 61.7969 163.682 64.2171 167.131 63.9317L166.966 61.9386C164.632 62.1317 162.44 60.5262 159.96 57.4076C157.496 54.3079 155.086 50.1759 152.132 45.8486C146.338 37.3613 138.663 28.496 125.868 29.2438L125.984 31.2404ZM167.131 63.9317C168.712 63.801 170.035 62.8184 171.145 61.4538C172.26 60.0829 173.261 58.2042 174.189 56.0096C176.046 51.6167 177.707 45.7125 179.371 39.4491C181.042 33.1567 182.72 26.4826 184.62 20.449C186.526 14.4001 188.622 9.10874 191.087 5.5552L189.443 4.41531C186.795 8.23332 184.627 13.7727 182.713 19.8481C180.794 25.9387 179.098 32.6824 177.438 38.9358C175.769 45.2182 174.141 50.9878 172.347 55.2309C171.449 57.3543 170.535 59.0343 169.593 60.1919C168.647 61.3559 167.774 61.8717 166.966 61.9386L167.131 63.9317Z" fill="url(#paint1_linear_44_2753)"/>
  <defs>
    <linearGradient id="paint0_linear_44_2753" x1="82.7563" y1="42.5" x2="82.7563" y2="91" gradientUnits="userSpaceOnUse">
      <stop stop-color="#388E3C"/>
      <stop offset="1" stop-color="white"/>
    </linearGradient>
    <linearGradient id="paint1_linear_44_2753" x1="-24" y1="52.5604" x2="195.755" y2="52.5604" gradientUnits="userSpaceOnUse">
      <stop offset="0.284" stop-color="white" stop-opacity="0.5"/>
      <stop offset="1" stop-color="#0EC053"/>
    </linearGradient>
  </defs>
</svg>