<svg xmlns="http://www.w3.org/2000/svg" width="41" height="61" viewBox="0 0 41 61" fill="none">
  <path d="M34.7701 60.8657L22.9416 60.7962L17.0875 50.5176L23.062 40.3085L34.8906 40.378L40.7447 50.6567L34.7701 60.8657Z" fill="white"/>
  <path d="M17.6826 50.9536L5.85405 50.884L0 40.6054L5.97452 30.3964L17.8031 30.4659L23.6571 40.7445L17.6826 50.9536Z" fill="white"/>
  <path d="M34.875 41.0903L23.0465 41.0208L17.1924 30.7421L23.1669 20.5331L34.9955 20.6026L40.8496 30.8812L34.875 41.0903Z" fill="white"/>
  <path d="M34.8669 21.423L23.0383 21.3534L17.1842 11.0748L23.1588 0.865723L34.9873 0.935266L40.8414 11.2139L34.8669 21.423Z" fill="white"/>
  <path d="M17.7731 31.2999L5.94454 31.2303L0.0904963 20.9517L6.06502 10.7426L17.8936 10.8122L23.7476 21.0908L17.7731 31.2999Z" fill="white"/>
  <path d="M34.1599 39.7769L23.8264 39.7448L18.6874 30.7796L23.882 21.8466L34.2155 21.8786L39.3545 30.8438L34.1599 39.7769Z" fill="#C12766"/>
  <path d="M16.9675 49.6401L6.63396 49.608L1.49499 40.6429L6.68954 31.7098L17.0231 31.7419L22.1621 40.7071L16.9675 49.6401Z" fill="#3E489F"/>
  <path d="M34.0531 59.5517L23.7195 59.5196L18.5806 50.5545L23.7751 41.6214L34.1087 41.6535L39.2476 50.6186L34.0531 59.5517Z" fill="#714099"/>
  <path d="M17.058 29.9864L6.72446 29.9543L1.58549 20.9892L6.78005 12.0561L17.1136 12.0882L22.2526 21.0533L17.058 29.9864Z" fill="#78932C"/>
  <path d="M34.1518 20.1095L23.8182 20.0774L18.6792 11.1123L23.8738 2.17921L34.2073 2.21129L39.3463 11.1764L34.1518 20.1095Z" fill="#CF242A"/>
  <path d="M28.916 52.8537C30.1678 52.8537 31.1826 51.8389 31.1826 50.5871C31.1826 49.3353 30.1678 48.3206 28.916 48.3206C27.6643 48.3206 26.6495 49.3353 26.6495 50.5871C26.6495 51.8389 27.6643 52.8537 28.916 52.8537Z" fill="white"/>
  <path d="M11.5948 42.8658C12.8466 42.8658 13.8613 41.8511 13.8613 40.5993C13.8613 39.3475 12.8466 38.3327 11.5948 38.3327C10.343 38.3327 9.32823 39.3475 9.32823 40.5993C9.32823 41.8511 10.343 42.8658 11.5948 42.8658Z" fill="white"/>
  <path d="M29.3942 33.297C30.646 33.297 31.6608 32.2822 31.6608 31.0304C31.6608 29.7786 30.646 28.7639 29.3942 28.7639C28.1424 28.7639 27.1276 29.7786 27.1276 31.0304C27.1276 32.2822 28.1424 33.297 29.3942 33.297Z" fill="white"/>
  <path d="M11.919 23.2878C13.1708 23.2878 14.1856 22.273 14.1856 21.0213C14.1856 19.7695 13.1708 18.7547 11.919 18.7547C10.6672 18.7547 9.65247 19.7695 9.65247 21.0213C9.65247 22.273 10.6672 23.2878 11.919 23.2878Z" fill="white"/>
  <path d="M29.0128 13.4109C30.2646 13.4109 31.2793 12.3961 31.2793 11.1444C31.2793 9.89258 30.2646 8.87782 29.0128 8.87782C27.761 8.87782 26.7462 9.89258 26.7462 11.1444C26.7462 12.3961 27.761 13.4109 29.0128 13.4109Z" fill="white"/>
</svg>