<svg xmlns="http://www.w3.org/2000/svg" width="60" height="55" viewBox="0 0 60 55" fill="none">
  <path d="M33.3844 17.4925C33.3844 16.4975 34.1868 15.6816 35.1652 15.6816H50.5854C51.5639 15.6816 52.3662 16.4975 52.3662 17.4925C52.3662 18.4875 51.5639 19.3034 50.5854 19.3034H35.1652C34.1868 19.3034 33.3844 18.4875 33.3844 17.4925ZM33.3844 27.1442C33.3844 26.1492 34.1868 25.3333 35.1652 25.3333H50.5854C51.5639 25.3333 52.3662 26.1492 52.3662 27.1442C52.3662 28.1392 51.5639 28.9552 50.5854 28.9552H35.1652C34.1868 28.9552 33.3844 28.1392 33.3844 27.1442ZM33.3844 36.776C33.3844 35.781 34.1868 34.9651 35.1652 34.9651H50.5854C51.5639 34.9651 52.3662 35.781 52.3662 36.776C52.3662 37.7711 51.5639 38.587 50.5854 38.587H35.1652C34.1868 38.587 33.3844 37.791 33.3844 36.776Z" fill="#388E3C"/>
  <path d="M55.7907 4.5373H37.0046C36.9264 4.5373 36.8677 4.5373 36.7894 4.5572V0L0 4.2786V49.8705L36.7894 54.2685V49.5919C36.8677 49.5919 36.9264 49.6118 37.0046 49.6118H55.7907C56.7104 49.6118 57.591 49.2536 58.2564 48.5969C58.9022 47.9402 59.274 47.0646 59.274 46.1292V8.01988C59.274 7.08456 58.9022 6.20894 58.2564 5.55223C57.591 4.91541 56.7104 4.5373 55.7907 4.5373ZM10.4498 29.791C11.076 29.791 11.7022 29.6915 12.2892 29.4925L12.6219 31.3432C12.2109 31.5422 11.3108 31.7611 10.1171 31.7213C6.84909 31.6417 5.20531 29.4328 5.20531 26.5671C5.20531 23.1442 7.45572 21.1741 10.3323 21.0945C11.4673 21.0547 12.3479 21.2935 12.7393 21.4925L12.2892 23.3631C11.7022 23.1243 11.076 22.985 10.4302 23.0049C8.70813 23.0248 7.39701 24.1591 7.39701 26.4079C7.41658 28.4576 8.53201 29.7512 10.4498 29.791ZM16.5748 31.8805C15.4202 31.8407 14.2657 31.5024 13.7177 31.1641L14.1874 29.2139C14.9701 29.6318 15.8312 29.8706 16.7313 29.9104C17.8076 29.9303 18.3751 29.4726 18.3751 28.7761C18.3751 28.0994 17.8859 27.7213 16.6531 27.2636C14.9701 26.6467 13.8743 25.6716 13.8743 24.1591C13.8743 22.3681 15.3028 20.9552 17.7098 20.8955C18.8839 20.8557 19.7645 21.0945 20.3907 21.3731L19.8624 23.3631C19.1774 23.0447 18.4338 22.8656 17.6706 22.8855C16.6726 22.9054 16.1834 23.383 16.1834 23.9402C16.1834 24.6169 16.7509 24.9154 18.0816 25.4129C19.9406 26.1094 20.8212 27.1044 20.8212 28.6368C20.8017 30.4477 19.4318 31.9601 16.5748 31.8805ZM27.9834 32.0198L25.009 31.9402L21.5061 20.9751L24.2066 20.9154L25.5569 25.5721C25.9287 26.8855 26.2809 28.1591 26.5549 29.5522H26.6136C26.8876 28.2188 27.2594 26.8855 27.6312 25.6119L29.0988 20.796L31.8972 20.7164L27.9834 32.0198ZM57.2779 46.1094C57.2779 46.5074 57.1214 46.8855 56.8474 47.1641C56.5735 47.4427 56.1821 47.6019 55.7907 47.6019H37.0046C36.9264 47.6019 36.8677 47.6019 36.7894 47.582V6.54725C36.8677 6.52735 36.9264 6.52735 37.0046 6.52735H55.7907C56.1821 6.52735 56.5735 6.68655 56.8474 6.96516C57.1214 7.24376 57.2779 7.62187 57.2779 8.01988V46.1094Z" fill="#2E7D32"/>
</svg>