<svg xmlns="http://www.w3.org/2000/svg" width="60" height="60" viewBox="0 0 60 60" fill="none">
  <g clip-path="url(#clip0_290_298)">
    <path d="M58.1245 49.8759H31.8745C31.2537 49.8759 30.7495 49.3717 30.7495 48.7509V48.7444V48.7372V48.7292V48.7204V48.7108V48.7005V48.6893V48.6775V48.6648V48.6514V48.6372V48.6223V48.6067V48.5903V48.5731V48.5552V48.5366V48.5172V48.4971V48.4763V48.4547V48.4324V48.4094V48.3857V48.3613V48.3361V48.3103V48.2837V48.2565V48.2285V48.1999V48.1706V48.1405V48.1098V48.0784V48.0464V48.0136V47.9802V47.9461V47.9113V47.8759V47.8398V47.8031V47.7657V47.7276V47.6889V47.6496V47.6096V47.569V47.5277V47.4858V47.4433V47.4001V47.3563V47.3119V47.2669V47.2213V47.175V47.1282V47.0807V47.0326V46.984V46.9347V46.8849V46.8344V46.7834V46.7318V46.6796V46.6268V46.5735V46.5195V46.465V46.41V46.3544V46.2982V46.2414V46.1842V46.1263V46.0679V46.009V45.9495V45.8895V45.829V45.7679V45.7063V45.6441V45.5815V45.5183V45.4546V45.3904V45.3257V45.2605V45.1947V45.1285V45.0618V44.9946V44.9269V44.8587V44.79V44.7208V44.6511V44.581V44.5104V44.4393V44.3678V44.2958V44.2233V44.1504V44.077V44.0032V43.9289V43.8542V43.779V43.7034V43.6274V43.5509V43.474V43.3966V43.3189V43.2407V43.1621V43.0831V43.0037V42.9238V42.8436V42.7629V42.6819V42.6004V42.5186V42.4364V42.3538V42.2708V42.1874V42.1036V42.0195V41.935V41.8501V41.7649V41.6793V41.5933V41.507V41.4203V41.3333V41.2459V41.1582V41.0702V40.9818V40.893V40.804V40.7146V40.6249V40.5348V40.4445V40.3538V40.2628V40.1715V40.0799V39.988V39.8958V39.8032V39.7104V39.6173V39.524V39.4303V39.3363V39.2421V39.1476V39.0528V38.9577V38.8624V38.7668V38.6709V38.5748V38.4785V38.3819V38.285V38.1879V38.0905V37.9929V37.8951V37.797V37.6987V37.6002V37.5015V37.4025V37.3033V37.2039V37.1043V37.0045V36.9044V36.8042V36.7038V36.6031V36.5023V36.4013V36.3001V36.1987V36.0971V35.9954V35.8935V35.7914V35.6891V35.5867V35.4841V35.3813V35.2784V35.1753V35.0721V34.9688V34.8653V34.7616V34.6578V34.5539V34.4499V34.3457V34.2414V34.1369V34.0324V33.9277V33.8229V33.718V33.613V33.5079V33.4027V33.2974V33.192V33.0865V32.9809V32.8753V32.7695V32.6637V32.5578V32.4518V32.3458V32.2396V32.1335V32.0272V31.9209V31.8145V31.7081V31.6017V31.4952V31.3886V31.282V31.1754V31.0687V30.962V30.8553V30.7486V30.6418V30.535V30.4282V30.3214V30.2146V30.1078V30.0009V29.8941V29.7873V29.6805V29.5736V29.4668V29.3601V29.2533V29.1466V29.0398V28.9331V28.8265V28.7199V28.6133V28.5067V28.4002V28.2937V28.1873V28.081V27.9747V27.8684V27.7622V27.6561V27.5501V27.4441V27.3382V27.2323V27.1266V27.0209V26.9153V26.8098V26.7044V26.5991V26.4939V26.3888V26.2838V26.1789V26.0742V25.9695V25.8649V25.7605V25.6562V25.552V25.448V25.344V25.2403V25.1366V25.0331V24.9297V24.8265V24.7235V24.6205V24.5178V24.4152V24.3128V24.2105V24.1084V24.0065V23.9047V23.8032V23.7018V23.6006V23.4996V23.3987V23.2981V23.1977V23.0974V22.9974V22.8976V22.798V22.6986V22.5994V22.5004V22.4017V22.3031V22.2048V22.1068V22.0089V21.9113V21.814V21.7169V21.62V21.5234V21.427V21.3309V21.2351V21.1395V21.0442V20.9491V20.8543V20.7598V20.6656V20.5716V20.4779V20.3845V20.2914V20.1986V20.1061V20.0139V19.922V19.8304V19.7391V19.6481V19.5574V19.467V19.377V19.2873V19.1979V19.1088V19.0201V18.9317V18.8437V18.7559V18.6686V18.5815V18.4949V18.4086V18.3226V18.237V18.1518V18.0669V17.9824V17.8982V17.8145V17.7311V17.6481V17.5655V17.4833V17.4014V17.32V17.2389V17.1583V17.0781V16.9982V16.9188V16.8398V16.7612V16.683V16.6052V16.5279V16.451V16.3745V16.2985V16.2229V16.1477V16.073V15.9987V15.9248V15.8515V15.7785V15.7061V15.6341V15.5625V15.4915V15.4209V15.3507V15.2811V15.2119V15.1432V15.075V15.0073V14.9401V14.8734V14.8071V14.7414V14.6762V14.6115V14.5472V14.4836V14.4204V14.3577V14.2956V14.234V14.1729V14.1124V14.0523V13.9929V13.9339V13.8756V13.8177V13.7604V13.7037V13.6475V13.5919V13.5368V13.4823V13.4284V13.3751V13.3223V13.2701V13.2185V13.1674V13.117V13.0672V13.0179V12.9692V12.9212V12.8737V12.8268V12.7806V12.735V12.6899V12.6455V12.6018V12.5586V12.5161V12.4742V12.4329V12.3923V12.3523V12.3129V12.2742V12.2362V12.1988V12.1621V12.126V12.0905V12.0558V12.0217V11.9883V11.9555V11.9234V11.892V11.8613V11.8313V11.802V11.7733V11.7454V11.7181V11.6916V11.6657V11.6406V11.6162V11.5924V11.5694V11.5472V11.5256V11.5048V11.4847V11.4653V11.4467V11.4288V11.4116V11.3952V11.3795V11.3646V11.3505V11.3371V11.3244V11.3125V11.3014V11.2911V11.2815V11.2727V11.2647V11.2574V11.251C30.7495 10.6302 31.2537 10.126 31.8745 10.126H58.1245C58.7453 10.126 59.2495 10.6302 59.2495 11.251V48.7509C59.2495 49.3717 58.7453 49.8759 58.1245 49.8759Z" fill="white" stroke="#2E7D32" stroke-width="1.5"/>
    <path d="M39.3745 20.626H31.8745C30.8395 20.626 29.9995 19.786 29.9995 18.751C29.9995 17.716 30.8395 16.876 31.8745 16.876H39.3745C40.4095 16.876 41.2495 17.716 41.2495 18.751C41.2495 19.786 40.4095 20.626 39.3745 20.626Z" fill="#388E3C"/>
    <path d="M39.3745 28.126H31.8745C30.8395 28.126 29.9995 27.286 29.9995 26.251C29.9995 25.216 30.8395 24.376 31.8745 24.376H39.3745C40.4095 24.376 41.2495 25.216 41.2495 26.251C41.2495 27.286 40.4095 28.126 39.3745 28.126Z" fill="#388E3C"/>
    <path d="M39.3745 35.626H31.8745C30.8395 35.626 29.9995 34.786 29.9995 33.751C29.9995 32.716 30.8395 31.876 31.8745 31.876H39.3745C40.4095 31.876 41.2495 32.716 41.2495 33.751C41.2495 34.786 40.4095 35.626 39.3745 35.626Z" fill="#388E3C"/>
    <path d="M39.3745 43.126H31.8745C30.8395 43.126 29.9995 42.286 29.9995 41.251C29.9995 40.216 30.8395 39.376 31.8745 39.376H39.3745C40.4095 39.376 41.2495 40.216 41.2495 41.251C41.2495 42.286 40.4095 43.126 39.3745 43.126Z" fill="#388E3C"/>
    <path d="M50.6245 20.626H46.8745C45.8395 20.626 44.9995 19.786 44.9995 18.751C44.9995 17.716 45.8395 16.876 46.8745 16.876H50.6245C51.6595 16.876 52.4995 17.716 52.4995 18.751C52.4995 19.786 51.6595 20.626 50.6245 20.626Z" fill="#388E3C"/>
    <path d="M50.6245 28.126H46.8745C45.8395 28.126 44.9995 27.286 44.9995 26.251C44.9995 25.216 45.8395 24.376 46.8745 24.376H50.6245C51.6595 24.376 52.4995 25.216 52.4995 26.251C52.4995 27.286 51.6595 28.126 50.6245 28.126Z" fill="#388E3C"/>
    <path d="M50.6245 35.626H46.8745C45.8395 35.626 44.9995 34.786 44.9995 33.751C44.9995 32.716 45.8395 31.876 46.8745 31.876H50.6245C51.6595 31.876 52.4995 32.716 52.4995 33.751C52.4995 34.786 51.6595 35.626 50.6245 35.626Z" fill="#388E3C"/>
    <path d="M50.6245 43.126H46.8745C45.8395 43.126 44.9995 42.286 44.9995 41.251C44.9995 40.216 45.8395 39.376 46.8745 39.376H50.6245C51.6595 39.376 52.4995 40.216 52.4995 41.251C52.4995 42.286 51.6595 43.126 50.6245 43.126Z" fill="#388E3C"/>
    <path d="M33.0708 2.30731C32.6433 1.95106 32.0695 1.79731 31.5295 1.90981L1.52951 7.5348C0.640762 7.6998 -0.000488281 8.4723 -0.000488281 9.37605V50.626C-0.000488281 51.526 0.640762 52.3022 1.52951 52.4672L31.5295 58.0922C31.642 58.1147 31.7583 58.1259 31.8745 58.1259C32.3095 58.1259 32.7333 57.9759 33.0708 57.6947C33.502 57.3384 33.7495 56.8059 33.7495 56.2509V3.75106C33.7495 3.19231 33.502 2.66356 33.0708 2.30731Z" fill="#2E7D32"/>
    <path d="M25.785 36.2673L19.8562 29.4911L25.8525 21.7811C26.49 20.9636 26.34 19.7861 25.5262 19.1486C24.7125 18.5111 23.535 18.6611 22.8937 19.4749L17.34 26.6148L12.66 21.2674C11.9737 20.4799 10.7887 20.4086 10.0162 21.0911C9.23623 21.7736 9.15748 22.9586 9.83998 23.7348L14.9962 29.6298L9.76873 36.3498C9.13123 37.1673 9.28122 38.3448 10.095 38.9823C10.44 39.2486 10.8487 39.3761 11.25 39.3761C11.8087 39.3761 12.36 39.1286 12.7312 38.6523L17.5125 32.5023L22.965 38.7311C23.3362 39.1586 23.8537 39.3761 24.375 39.3761C24.8137 39.3761 25.2525 39.2223 25.6087 38.9111C26.3887 38.2286 26.4675 37.0436 25.785 36.2673Z" fill="#FAFAFA"/>
  </g>
  <defs>
    <clipPath id="clip0_290_298">
      <rect width="60" height="59.9999" fill="white"/>
    </clipPath>
  </defs>
</svg>