<svg xmlns="http://www.w3.org/2000/svg" width="116" height="60" viewBox="0 0 116 60" fill="none">
  <g clip-path="url(#clip0_141_1974)">
    <path d="M113.396 53.4187C112.258 53.4185 111.334 52.4987 111.329 51.3607C111.323 50.2226 112.239 49.2944 113.377 49.2839C114.515 49.2735 115.447 50.1847 115.463 51.3226C115.478 51.878 115.266 52.4154 114.876 52.811C114.486 53.2065 113.951 53.426 113.396 53.4187ZM113.396 49.4708C112.634 49.4657 111.944 49.9205 111.649 50.6226C111.353 51.3247 111.51 52.1357 112.047 52.6768C112.583 53.218 113.392 53.3825 114.097 53.0936C114.802 52.8046 115.263 52.1192 115.265 51.3575C115.275 50.8572 115.082 50.3743 114.729 50.0188C114.377 49.6633 113.896 49.4656 113.396 49.4708ZM113.894 52.6585L113.361 51.5083H112.931V52.6585H112.618V50.0415H113.39C113.964 50.0415 114.203 50.2908 114.203 50.773C114.203 51.1568 114.023 51.3961 113.686 51.4696L114.237 52.6547L113.894 52.6585ZM112.943 51.2379H113.396C113.762 51.2379 113.902 51.1132 113.902 50.7793C113.902 50.4453 113.768 50.3319 113.356 50.3319H112.943V51.2379ZM82.6265 51.5344C83.186 51.9818 84.3039 52.1662 85.2896 52.1662C86.5669 52.1662 87.8193 51.9295 89.0431 50.8241C90.2892 49.6913 91.1466 47.9579 91.1466 45.1902C91.1466 42.5308 90.1347 40.3725 88.0586 39.1088C86.8872 38.3724 85.3693 38.082 83.6384 38.082C83.1399 38.082 82.6265 38.1082 82.3349 38.2403C82.2154 38.3346 82.1307 38.4662 82.0944 38.6141C82.0421 39.0877 82.0421 42.6941 82.0421 44.8263C82.0421 47.0121 82.0421 50.0602 82.0944 50.4341C82.1218 50.7506 82.2813 51.3064 82.6265 51.5394M77.3128 36.8981C77.7652 36.8981 79.4849 36.9766 80.285 36.9766C81.7804 36.9766 82.8134 36.8981 85.6086 36.8981C87.9514 36.8981 89.9229 37.5299 91.3323 38.74C93.037 40.2154 93.9492 42.2679 93.9492 44.769C93.9492 48.323 92.3292 50.3767 90.7005 51.5344C89.0804 52.7457 86.9732 53.4299 83.9711 53.4299C82.3735 53.4299 79.6307 53.3775 77.3415 53.3514H77.2941C77.187 53.1408 77.4898 52.3195 77.6767 52.2983C78.2998 52.2286 78.4643 52.2036 78.7509 52.0852C79.2344 51.8871 79.3478 51.6404 79.4014 50.7718C79.4812 49.1393 79.455 47.1915 79.455 44.9796C79.455 43.4007 79.4812 40.3201 79.4288 39.3456C79.3478 38.5306 79.0039 38.32 78.3073 38.1618C77.8133 38.0568 77.3141 37.9778 76.8119 37.925C76.7595 37.7667 77.1683 37.0527 77.3016 36.8981M100.548 38.234C100.442 38.2602 100.308 38.5244 100.308 38.6552C100.281 39.6036 100.255 42.0772 100.255 43.7882C100.269 43.8551 100.321 43.9072 100.388 43.9203C100.733 43.9465 101.586 43.9739 102.305 43.9739C103.317 43.9739 103.902 43.8418 104.221 43.6835C105.074 43.2623 105.468 42.3402 105.468 41.3407C105.468 39.0503 103.87 38.1817 101.501 38.1817C101.181 38.1776 100.861 38.1951 100.543 38.234M106.587 48.7642C106.587 46.4476 104.882 45.1316 101.766 45.1316C101.634 45.1316 100.645 45.1054 100.409 45.1578C100.33 45.1839 100.25 45.2363 100.25 45.2899C100.25 46.9485 100.222 49.6066 100.303 50.6596C100.357 51.107 100.677 51.7388 101.075 51.9232C101.501 52.16 102.459 52.2124 103.125 52.2124C104.962 52.2124 106.587 51.1868 106.587 48.7642ZM95.7375 36.9442C95.978 36.9442 96.6858 37.0227 98.4965 37.0227C100.2 37.0227 101.585 36.9704 103.232 36.9704C105.282 36.9704 108.103 37.7081 108.103 40.7613C108.103 42.2567 107.039 43.4729 105.655 44.0524C105.575 44.0786 105.575 44.1309 105.655 44.1571C107.625 44.6556 109.354 45.8681 109.354 48.1847C109.354 50.449 107.944 51.8709 105.894 52.7657C104.648 53.319 103.099 53.5021 101.532 53.5021C100.335 53.5021 97.1245 53.3775 95.34 53.3975C95.153 53.319 95.5107 52.4753 95.6702 52.3445C96.079 52.3319 96.4847 52.2682 96.8777 52.155C97.5158 51.998 97.5918 51.7924 97.6716 50.8441C97.7252 50.0278 97.7252 47.1055 97.7252 45.0257C97.7252 42.1819 97.7526 40.2616 97.7252 39.3132C97.699 38.5767 97.4323 38.3387 96.9264 38.2079C96.5276 38.1281 95.8621 38.0496 95.33 37.9711C95.1967 37.839 95.6067 37.0489 95.7388 36.9442M0.24946 53.4187C0.180892 53.2501 0.153137 53.0678 0.168459 52.8865C0.162486 52.763 0.190502 52.6401 0.24946 52.5314C0.5938 52.4817 0.934987 52.4122 1.27132 52.3233C1.74238 52.2061 1.91933 51.9494 1.94675 51.3488C2.02401 49.9294 2.029 47.2663 2.00158 45.3945V45.3397C2.00158 45.1378 2.00158 44.8637 1.75234 44.6705C1.31429 44.3957 0.838704 44.1858 0.34043 44.0474C0.117365 43.9814 -0.00600578 43.8642 0.000225088 43.7272C0.00645596 43.5901 0.147274 43.4281 0.437632 43.3708C1.20901 43.2922 3.23031 42.81 4.02412 42.4436C4.10586 42.5501 4.14376 42.6839 4.13004 42.8175C4.13004 42.8997 4.11758 42.9869 4.10886 43.0767C4.08643 43.3408 4.0615 43.6412 4.0615 43.9403C4.07146 44.0144 4.12254 44.0764 4.19334 44.1005C4.26414 44.1245 4.34246 44.1064 4.39548 44.0537C5.90709 42.8685 7.26168 42.4461 7.9558 42.4461C9.09854 42.4461 9.98831 42.9919 10.6774 44.116C10.7096 44.1712 10.7681 44.2056 10.832 44.2069C10.8899 44.2064 10.9439 44.1775 10.9765 44.1297C12.366 43.0754 13.743 42.4461 14.6652 42.4461C16.8435 42.4461 18.1458 44.0773 18.1458 46.8077C18.1458 47.5928 18.1383 48.5885 18.1308 49.5169C18.1246 50.3319 18.1183 51.0958 18.1183 51.6242C18.1183 51.7488 18.2903 52.1077 18.5483 52.1787C18.8673 52.3345 19.3271 52.4142 19.9091 52.5139H19.9315C19.9751 52.6709 19.8829 53.2803 19.7944 53.4049C19.6499 53.4049 19.4505 53.3925 19.2013 53.38C18.7489 53.3576 18.1283 53.3264 17.4068 53.3264C15.9587 53.3264 15.2023 53.3539 14.4795 53.4012C14.4247 53.2205 14.406 52.6373 14.472 52.5152C14.7714 52.4684 15.0676 52.4039 15.3593 52.322C15.8204 52.17 15.9537 51.9606 15.9824 51.3488C15.9936 50.9138 16.0771 47.0819 15.9288 46.1722C15.7917 45.2288 15.0814 44.1247 13.5274 44.1247C12.9505 44.1247 12.0196 44.3652 11.1323 45.0381C11.0773 45.1005 11.0463 45.1805 11.0451 45.2637V45.2824C11.1497 45.7734 11.1497 46.3466 11.1497 47.2127C11.1497 47.7112 11.1497 48.2308 11.1435 48.7505C11.1373 49.8072 11.1323 50.8042 11.1497 51.5581C11.1497 52.0715 11.46 52.1949 11.7105 52.2934C11.8463 52.3233 11.9535 52.3494 12.0619 52.3744C12.27 52.4255 12.4869 52.4778 12.8096 52.5289C12.8574 52.7478 12.8532 52.9749 12.7972 53.1918C12.784 53.2733 12.752 53.3505 12.7037 53.4174C11.8987 53.39 11.0725 53.3663 9.87989 53.3663C9.5185 53.3663 8.92906 53.3813 8.40816 53.395C7.9857 53.4062 7.58693 53.4174 7.36013 53.4187C7.29879 53.2739 7.2715 53.117 7.28037 52.9601C7.26764 52.8122 7.29656 52.6637 7.36386 52.5314L7.68413 52.4728C7.96327 52.423 8.20503 52.3806 8.43184 52.3233C8.82563 52.1986 8.97392 51.9843 9.00258 51.4821C9.07985 50.3107 9.13966 46.9348 8.97392 46.0899C8.69228 44.7341 7.9209 44.0462 6.67971 44.0462C5.9532 44.0462 5.03477 44.3964 4.28457 44.9584C4.13869 45.1004 4.05873 45.2969 4.064 45.5005C4.064 45.903 4.064 46.3815 4.064 46.8949C4.064 48.5897 4.05278 50.6995 4.0939 51.6117C4.11883 51.8933 4.21852 52.2273 4.74565 52.3494C4.86155 52.3831 5.06094 52.4155 5.29272 52.4541C5.42606 52.4765 5.57187 52.5002 5.72265 52.5276C5.77059 52.826 5.74623 53.1316 5.65162 53.4187C5.41983 53.4187 5.13446 53.4037 4.80796 53.39C4.30949 53.3676 3.68641 53.3401 2.98232 53.3401C2.14987 53.3401 1.5704 53.3676 1.10558 53.39C0.792791 53.4049 0.522372 53.4174 0.251952 53.4187M26.9736 43.5726C26.5239 43.5633 26.0815 43.6878 25.7026 43.9303C24.7779 44.4923 24.3068 45.6151 24.3068 47.265C24.3068 50.3531 25.8533 52.5102 28.0678 52.5102C28.6615 52.529 29.2407 52.324 29.6903 51.9357C30.3707 51.3812 30.7321 50.2471 30.7321 48.6595C30.7321 45.6176 29.2205 43.5726 26.9712 43.5726M27.3973 53.6554C23.3971 53.6554 21.9728 50.7207 21.9728 47.9754C21.9728 46.0575 22.7566 44.5584 24.3031 43.5178C25.3863 42.8472 26.6296 42.4797 27.9033 42.4536C30.9552 42.4536 33.0874 44.6481 33.0874 47.7922C33.0874 49.9281 32.2362 51.6154 30.6249 52.6697C29.8511 53.1432 28.5064 53.6554 27.3973 53.6554ZM67.6986 43.5726C67.2479 43.5624 66.8045 43.687 66.425 43.9303C65.5004 44.4923 65.0293 45.6151 65.0293 47.265C65.0293 50.3531 66.5758 52.5102 68.7903 52.5102C69.3857 52.5303 69.9669 52.3251 70.4177 51.9357C71.0982 51.3812 71.4583 50.2471 71.4583 48.6595C71.4583 45.6176 69.9479 43.5726 67.6986 43.5726ZM68.1248 53.6554C64.1246 53.6554 62.7002 50.7207 62.7002 47.9766C62.7002 46.0563 63.484 44.5584 65.0318 43.5178C66.1143 42.8468 67.3574 42.4793 68.6307 42.4536C71.6826 42.4536 73.8148 44.6493 73.8148 47.7909C73.8148 49.9294 72.9637 51.6154 71.3524 52.6685C70.5785 53.1432 69.2339 53.6554 68.1248 53.6554ZM54.23 43.468C52.9975 43.468 52.1999 44.4412 52.1999 45.9478C52.1999 47.4545 52.8866 49.2452 54.8169 49.2452C55.1484 49.2452 55.749 49.0982 56.0469 48.7704C56.4955 48.3579 56.7946 47.5056 56.7946 46.6058C56.7946 44.6406 55.8375 43.468 54.2362 43.468M54.0767 53.866C53.7285 53.8622 53.3852 53.9481 53.0797 54.1153C52.104 54.7383 51.6516 55.3614 51.6516 56.0855C51.6516 56.7634 51.9146 57.303 52.4803 57.7815C53.1657 58.3622 54.0904 58.6451 55.3054 58.6451C57.6968 58.6451 58.7685 57.3591 58.7685 56.0855C58.7685 55.1982 58.3236 54.6038 57.4077 54.2673C56.7024 54.0093 55.5235 53.8673 54.0804 53.8673M54.2399 59.9735C52.8043 59.9735 51.77 59.6707 50.8865 58.9903C50.0266 58.3273 49.6403 57.3429 49.6403 56.6624C49.6496 56.224 49.8169 55.8036 50.1114 55.4786C50.3606 55.1945 50.9401 54.6623 52.2797 53.7414C52.3222 53.7234 52.3496 53.6816 52.3495 53.6355C52.3504 53.5836 52.3152 53.5381 52.2647 53.5258C51.1619 53.1034 50.8292 52.4043 50.7282 52.0304C50.7282 52.0167 50.7282 51.9955 50.717 51.9718C50.6858 51.8248 50.6559 51.6852 50.8566 51.5419C51.0111 51.4323 51.2578 51.2852 51.522 51.1294C51.895 50.923 52.2527 50.6902 52.5925 50.4328C52.6295 50.393 52.646 50.3384 52.6373 50.2847C52.6285 50.2311 52.5954 50.1846 52.5476 50.1587C50.9151 49.6103 50.0927 48.3978 50.0927 46.5448C50.0825 45.372 50.6454 44.2681 51.6005 43.5876C52.2573 43.0679 53.906 42.4436 54.9739 42.4436H55.0362C56.1341 42.4698 56.7535 42.7003 57.6108 43.0168C58.0985 43.1932 58.6153 43.2752 59.1337 43.2586C60.0421 43.2586 60.4396 42.9707 60.7811 42.6355C60.8365 42.7865 60.866 42.9458 60.8683 43.1066C60.8892 43.4897 60.7851 43.8693 60.5717 44.1882C60.3861 44.4462 59.9486 44.6331 59.5486 44.6331C59.5075 44.6331 59.4676 44.6331 59.424 44.6269C59.2135 44.6121 59.0049 44.5774 58.8009 44.5235L58.6987 44.5596C58.6663 44.607 58.6875 44.6593 58.7137 44.7266C58.7201 44.7397 58.7251 44.7535 58.7286 44.7677C58.8016 45.1003 58.8511 45.4376 58.8769 45.7771C58.8769 47.7149 58.113 48.5586 57.2868 49.1842C56.488 49.7835 55.5394 50.1509 54.5452 50.2459C54.5241 50.2459 54.4206 50.2546 54.2262 50.2721C54.1016 50.2833 53.9396 50.2982 53.9159 50.2982H53.8922C53.7128 50.3481 53.2442 50.5711 53.2442 50.9861C53.2442 51.3301 53.4561 51.7575 54.4692 51.8348L55.1247 51.8809C56.4606 51.9743 58.1292 52.0902 58.9143 52.3557C59.9825 52.7313 60.6893 53.7496 60.6677 54.8817C60.6677 56.6201 59.4315 58.2551 57.3616 59.2545C56.3855 59.7207 55.3167 59.9606 54.2349 59.9561M48.1162 52.4915C47.5305 52.413 47.1031 52.3332 46.5984 52.0965C46.4993 51.9939 46.4341 51.8634 46.4115 51.7226C46.3579 50.9064 46.3579 48.5374 46.3579 46.9872C46.3579 45.7223 46.146 44.6194 45.6102 43.8281C44.9709 42.9321 44.0662 42.4062 42.8948 42.4062C41.8567 42.4062 40.4722 43.1165 39.3282 44.091C39.3008 44.1172 39.1251 44.2842 39.1288 44.025C39.1326 43.7658 39.1724 43.2399 39.1974 42.9034C39.2198 42.7222 39.1551 42.541 39.0229 42.4149C38.2752 42.7888 36.1779 43.2873 35.4015 43.3633C34.8358 43.4729 34.6925 44.0175 35.2968 44.2057H35.3056C35.7894 44.3391 36.2511 44.5423 36.6764 44.8088C36.9156 44.9933 36.8895 45.2562 36.8895 45.4668C36.9156 47.2302 36.9156 49.9418 36.8359 51.4161C36.8097 51.9955 36.6489 52.2061 36.2228 52.3121L36.2626 52.2983C35.9381 52.3797 35.6089 52.4413 35.2769 52.4828C35.1436 52.6136 35.1436 53.3775 35.2769 53.5358C35.5436 53.5358 36.8969 53.4573 38.0185 53.4573C39.5612 53.4573 40.36 53.5358 40.7601 53.5358C40.9208 53.3514 40.9732 52.641 40.8672 52.4828C40.4986 52.4661 40.1325 52.4131 39.7743 52.3245C39.3494 52.2198 39.2422 52.008 39.2161 51.5357C39.1637 50.297 39.1637 47.6651 39.1637 45.8743C39.1637 45.3758 39.2958 45.1378 39.4553 45.002C39.9874 44.5285 40.8672 44.2132 41.6386 44.2132C42.3863 44.2132 42.8848 44.4499 43.2586 44.7652C43.6941 45.1452 43.9671 45.6778 44.0213 46.2532C44.1272 47.2501 44.0998 49.2552 44.0998 50.9886C44.0998 51.937 44.0213 52.175 43.6749 52.2797C43.5154 52.3582 43.0892 52.4379 42.5832 52.4903C42.4237 52.6485 42.476 53.385 42.5832 53.5433C43.2748 53.5433 44.0786 53.4648 45.245 53.4648C46.7093 53.4648 47.6414 53.5433 48.014 53.5433C48.1736 53.3588 48.2271 52.6709 48.1212 52.4903" fill="#21313C"/>
    <path d="M65.5636 14.412C63.6557 5.99534 59.6792 3.75472 58.6648 2.17083C58.2465 1.47309 57.876 0.747822 57.5557 0C57.5021 0.747704 57.4037 1.21876 56.7681 1.78577C55.492 2.92352 50.0724 7.33996 49.6163 16.9031C49.1914 25.8195 56.1712 31.3176 57.0934 31.8858C57.8025 32.2348 58.666 31.8933 59.0873 31.573C62.4519 29.2639 67.0491 23.1078 65.5674 14.412" fill="#10AA50"/>
    <path d="M57.8448 27.1379C57.6691 29.3449 57.5432 30.6272 57.0971 31.8884C57.0971 31.8884 57.39 33.9894 57.5956 36.2151H58.3233C58.4969 34.6478 58.762 33.092 59.1172 31.5556C58.175 31.092 57.881 29.0745 57.8448 27.1379Z" fill="#B8C4C2"/>
    <path d="M59.1159 31.5568C58.1638 31.1169 57.8884 29.057 57.8461 27.1379C58.0815 23.9722 58.1502 20.7963 58.0517 17.6234C58.0018 15.9585 58.0754 2.20321 57.6417 0.189392C57.9383 0.871451 58.2801 1.53297 58.6648 2.16956C59.6792 3.75469 63.657 5.99531 65.5636 14.412C67.0491 23.0928 62.4768 29.2327 59.1159 31.5568Z" fill="#12924F"/>
  </g>
  <defs>
    <clipPath id="clip0_141_1974">
      <rect width="115.464" height="60" fill="white"/>
    </clipPath>
  </defs>
</svg>