<svg xmlns="http://www.w3.org/2000/svg" width="61" height="60" viewBox="0 0 61 60" fill="none">
  <g clip-path="url(#clip0_141_1968)">
    <path d="M26.69 31.1488H30.6547L28.5583 27.776L24.7108 33.8741H22.9597L27.6396 26.549C27.8431 26.253 28.1822 26.0742 28.5583 26.0742C28.9221 26.0742 29.2612 26.2469 29.4585 26.5367L34.157 33.8741H32.4059L31.5796 32.5114H27.5656L26.69 31.1488ZM44.8795 32.5114V26.1482H43.3935V33.1342C43.3935 33.3253 43.4675 33.5103 43.6094 33.6521C43.7511 33.794 43.9423 33.8741 44.1519 33.8741H50.9283L51.8039 32.5114H44.8795ZM20.296 31.3707C21.7388 31.3707 22.9104 30.2054 22.9104 28.7626C22.9104 27.3197 21.7388 26.1482 20.296 26.1482H13.7952V33.8741H15.2806V27.5109H20.1973C20.8879 27.5109 21.4429 28.072 21.4429 28.7626C21.4429 29.4531 20.8879 30.0142 20.1973 30.0142L16.0082 30.0081L20.4439 33.8741H22.6021L19.6178 31.3707H20.296ZM4.6512 33.8741C2.51838 33.8741 0.787598 32.1477 0.787598 30.0142C0.787598 27.8808 2.51838 26.1482 4.6512 26.1482H9.14181C11.2752 26.1482 13.0048 27.8808 13.0048 30.0142C13.0048 32.1477 11.2752 33.8741 9.14181 33.8741H4.6512ZM9.04192 32.5114C10.4237 32.5114 11.5428 31.3954 11.5428 30.0142C11.5428 28.6331 10.4237 27.5109 9.04192 27.5109H4.75045C3.36928 27.5109 2.24953 28.6331 2.24953 30.0142C2.24953 31.3954 3.36928 32.5114 4.75045 32.5114H9.04192ZM37.2584 33.8741C35.125 33.8741 33.3924 32.1477 33.3924 30.0142C33.3924 27.8808 35.125 26.1482 37.2584 26.1482H42.592L41.7226 27.5109H37.3571C35.9759 27.5109 34.8537 28.6331 34.8537 30.0142C34.8537 31.3954 35.9759 32.5114 37.3571 32.5114H42.7153L41.8397 33.8741H37.2584ZM55.4294 32.5114C54.2887 32.5114 53.3207 31.7469 53.0247 30.6925H59.3756L60.2512 29.3298H53.0247C53.3207 28.2816 54.2887 27.5109 55.4294 27.5109H59.7887L60.6705 26.1482H55.3308C53.1974 26.1482 51.4648 27.8808 51.4648 30.0142C51.4648 32.1477 53.1974 33.8741 55.3308 33.8741H59.9121L60.7876 32.5114H55.4294Z" fill="#EA1B22"/>
  </g>
  <defs>
    <clipPath id="clip0_141_1968">
      <rect width="60" height="60" fill="white" transform="translate(0.787598)"/>
    </clipPath>
  </defs>
</svg>