<svg width="60" height="60" viewBox="0 0 60 60" fill="none" xmlns="http://www.w3.org/2000/svg">
<g id="icon 18">
<g id="Clip path group">
<mask id="mask0_141_1984" style="mask-type:luminance" maskUnits="userSpaceOnUse" x="7" y="6" width="46" height="48">
<g id="a">
<path id="Vector" d="M7.2 6.47998H52.8V53.52H7.2V6.47998Z" fill="white"/>
</g>
</mask>
<g mask="url(#mask0_141_1984)">
<g id="Group">
<path id="Vector_2" d="M52.6229 34.6452C52.3493 33.8169 51.6331 33.24 50.707 33.1015C50.2702 33.0364 49.77 33.064 49.1782 33.1862C48.1464 33.3991 47.381 33.4802 46.8223 33.4958C48.9307 29.9352 50.6453 25.8748 51.6322 22.0526C53.2282 15.8724 52.3754 13.0569 51.3787 11.7832C48.7414 8.41244 44.8932 6.60164 40.2509 6.5462C37.7746 6.51596 35.6004 7.00508 34.4664 7.35668C33.4104 7.1702 32.275 7.06628 31.0838 7.04708C28.8506 7.01132 26.8776 7.49828 25.1916 8.49908C24.2582 8.18324 22.7604 7.73828 21.0302 7.45436C16.9615 6.7862 13.6822 7.30676 11.2836 9.00164C8.37912 11.0536 7.03272 14.6191 7.2816 19.5988C7.3608 21.18 8.24496 25.9903 9.6372 30.5524C10.4374 33.1747 11.2906 35.3522 12.173 37.025C13.4249 39.3974 14.7641 40.7942 16.2677 41.296C17.1103 41.5768 18.6415 41.7734 20.2519 40.4318C20.4559 40.6792 20.7286 40.925 21.09 41.1532C21.5489 41.4427 22.11 41.6793 22.6709 41.8195C24.691 42.3244 26.5831 42.1982 28.1974 41.4902C28.2074 41.7775 28.2151 42.0518 28.2216 42.2887C28.2322 42.6732 28.243 43.05 28.2569 43.4023C28.3526 45.785 28.5146 47.6378 28.9949 48.934C29.0213 49.0053 29.0568 49.114 29.094 49.2292C29.3338 49.9629 29.7343 51.1912 30.7536 52.1532C31.8089 53.1496 33.0854 53.4552 34.2547 53.4552C34.841 53.4552 35.4007 53.3781 35.8913 53.273C37.6406 52.8981 39.6271 52.3269 41.0642 50.2802C42.4231 48.3453 43.0836 45.431 43.2031 40.8391L43.2466 40.4671L43.2749 40.2244L43.595 40.2528L43.6776 40.2583C45.4591 40.3394 47.6376 39.9616 48.9756 39.34C50.0328 38.8492 53.4204 37.0603 52.6229 34.6452Z" fill="black"/>
<path id="Vector_3" d="M49.5768 35.1148C44.2793 36.2078 43.915 34.414 43.915 34.414C49.5082 26.1127 51.8465 15.5757 49.8288 12.9967C44.3239 5.96181 34.7952 9.28893 34.6361 9.37509L34.585 9.38445C33.5383 9.16701 32.3671 9.03765 31.0507 9.01605C28.6538 8.97693 26.8356 9.64485 25.4558 10.6913C25.4558 10.6913 8.45736 3.68685 9.24792 19.5004C9.41616 22.8645 14.0688 44.9553 19.6181 38.2828C21.6463 35.8428 23.6064 33.78 23.6064 33.78C24.5796 34.4265 25.7448 34.7565 26.9664 34.6382L27.0614 34.5576C27.0319 34.8605 27.0454 35.1566 27.0994 35.5075C25.6697 37.1052 26.0899 37.3855 23.232 37.974C20.34 38.5701 22.0392 39.6314 23.148 39.9089C24.4927 40.2451 27.6036 40.7215 29.7055 37.7784L29.6218 38.1144C30.1817 38.5629 30.575 41.033 30.5093 43.2725C30.4433 45.5117 30.3994 47.0491 30.8405 48.2498C31.2821 49.4508 31.7218 52.1525 35.479 51.3475C38.6179 50.6745 40.2449 48.9307 40.4712 46.0221C40.6318 43.9543 40.9951 44.2601 41.0179 42.4113L41.3095 41.5361C41.6458 38.7331 41.363 37.8288 43.297 38.2492L43.7671 38.2905C45.1903 38.3553 47.0537 38.0616 48.1471 37.5532C50.5015 36.4603 51.8981 34.6353 49.5763 35.1148H49.5768Z" fill="#336791"/>
<path id="Vector_4" d="M26.4509 21.0047C25.9735 20.9383 25.541 20.9999 25.3224 21.1655C25.1995 21.2587 25.1614 21.3667 25.151 21.4411C25.1237 21.6379 25.2614 21.8555 25.3462 21.9679C25.5859 22.2856 25.9363 22.504 26.2829 22.5523C26.333 22.5595 26.3832 22.5626 26.4329 22.5626C27.0108 22.5626 27.5364 22.1123 27.5827 21.7802C27.6408 21.3638 27.0367 21.0866 26.4509 21.005V21.0047ZM42.2654 21.0179C42.2198 20.6918 41.6395 20.5989 41.0887 20.6755C40.5386 20.752 40.0054 21.0004 40.05 21.3273C40.0855 21.5817 40.5446 22.0156 41.088 22.0156C41.1338 22.0156 41.1802 22.0125 41.2267 22.006C41.5896 21.9556 41.8555 21.7252 41.982 21.5925C42.1745 21.3902 42.2861 21.1646 42.2654 21.0179Z" fill="white"/>
<path id="Vector_5" d="M51.3396 34.9907C51.1378 34.3797 50.4876 34.1831 49.4074 34.4063C46.2002 35.0683 45.0516 34.6099 44.6746 34.3319C47.1674 30.5335 49.2182 25.942 50.3246 21.658C50.8486 19.6286 51.138 17.7441 51.1618 16.2079C51.1879 14.5219 50.9009 13.283 50.3088 12.5263C47.9215 9.47514 44.4178 7.83858 40.1765 7.79346C37.261 7.76082 34.7974 8.50722 34.3198 8.71698C33.3142 8.4669 32.2178 8.3133 31.0241 8.29362C28.8353 8.25834 26.9434 8.7825 25.3769 9.85074C24.6965 9.59754 22.938 8.99394 20.7874 8.64714C17.0698 8.04858 14.1154 8.50218 12.007 9.99594C9.49128 11.7787 8.32992 14.9654 8.5548 19.4673C8.63064 20.9817 9.49344 25.6413 10.855 30.1034C12.6473 35.9762 14.5956 39.3009 16.6454 39.9849C16.8854 40.0651 17.1622 40.121 17.4672 40.121C18.215 40.121 19.1318 39.7838 20.0856 38.6368C21.2491 37.2408 22.4526 35.8787 23.6947 34.5523C24.5004 34.9847 25.3858 35.2264 26.2913 35.2507C26.293 35.2744 26.2954 35.2979 26.2975 35.3215C26.1416 35.5074 25.989 35.6959 25.8396 35.8871C25.2122 36.6837 25.0817 36.8495 23.0623 37.2655C22.4878 37.3843 20.9623 37.6987 20.9398 38.7683C20.9158 39.9371 22.7434 40.4279 22.9514 40.48C23.6772 40.6617 24.3763 40.7512 25.043 40.7512C26.6645 40.7512 28.0915 40.2182 29.2318 39.1869C29.1967 43.3533 29.3705 47.459 29.8706 48.7099C30.2803 49.7339 31.2811 52.2367 34.4419 52.2364C34.9058 52.2364 35.4163 52.1824 35.9779 52.0619C39.277 51.3547 40.7098 49.8962 41.2639 46.6809C41.5603 44.9625 42.0694 40.8592 42.3086 38.6582C42.8138 38.8159 43.4642 38.8881 44.1672 38.8879C45.6336 38.8879 47.3256 38.5763 48.3866 38.0836C49.5787 37.5299 51.7298 36.1713 51.3396 34.9907ZM43.4832 20.1175C43.4724 20.7674 43.3831 21.3573 43.2883 21.9729C43.1861 22.6353 43.0807 23.3198 43.0541 24.1509C43.0279 24.9599 43.129 25.8009 43.2266 26.614C43.4239 28.2568 43.6265 29.9479 42.8426 31.6166C42.7123 31.3858 42.5963 31.1473 42.4951 30.9023C42.3977 30.6662 42.1862 30.2867 41.8932 29.7614C40.7534 27.7168 38.0842 22.9288 39.4505 20.975C39.8575 20.3935 40.8905 19.7956 43.4832 20.1175ZM40.3404 9.10938C44.1406 9.19338 47.1466 10.6151 49.2749 13.3353C50.9071 15.4219 49.1098 24.9158 43.9061 33.106C43.8538 33.0395 43.8012 32.9733 43.7484 32.9071L43.6824 32.8247C45.0271 30.6035 44.7641 28.4059 44.5301 26.4575C44.4338 25.6579 44.3431 24.9026 44.3662 24.1931C44.3902 23.4415 44.4895 22.7963 44.5858 22.1728C44.7038 21.4043 44.8241 20.6092 44.791 19.672C44.8157 19.5736 44.8258 19.4575 44.8126 19.3195C44.7281 18.4207 43.7021 15.7307 41.6107 13.2959C40.4669 11.9639 38.7989 10.4735 36.521 9.46842C37.5007 9.26538 38.8404 9.07602 40.3404 9.10938ZM19.0764 37.7973C18.0252 39.0611 17.2997 38.819 17.0609 38.7395C15.5057 38.2207 13.7014 34.9331 12.1106 29.7201C10.734 25.2093 9.92976 20.6735 9.86592 19.4015C9.66504 15.3791 10.6399 12.5755 12.7637 11.069C16.2199 8.61738 21.9024 10.085 24.186 10.829C24.1531 10.8614 24.119 10.8916 24.0866 10.9247C20.3395 14.7095 20.4283 21.1761 20.4377 21.5716C20.4372 21.724 20.4502 21.94 20.4674 22.2369C20.5322 23.3246 20.6522 25.349 20.3314 27.6415C20.0338 29.7717 20.6902 31.8568 22.1326 33.3621C22.2806 33.5163 22.4361 33.663 22.5986 33.8018C21.3879 35.1009 20.2136 36.4333 19.0764 37.7973ZM23.0803 32.4537C21.9178 31.2403 21.3898 29.5528 21.6317 27.8231C21.9701 25.4015 21.8453 23.2924 21.7781 22.1591C21.7685 22.0007 21.7601 21.8618 21.7553 21.7523C22.3027 21.2668 24.8395 19.9072 26.6484 20.3219C27.474 20.5111 27.977 21.0731 28.1861 22.0403C29.2685 27.0472 28.3294 29.134 27.5748 30.8111C27.4193 31.1565 27.2724 31.4831 27.1469 31.8211L27.0497 32.0822C26.8034 32.7424 26.5745 33.3563 26.4324 33.9393C25.1966 33.9357 23.9945 33.4079 23.0803 32.4537ZM23.2699 39.2061C22.9092 39.1159 22.5845 38.9594 22.3942 38.8293C22.5533 38.7547 22.8362 38.6527 23.3273 38.5514C25.7028 38.0625 26.0698 37.7171 26.8709 36.6995C27.0547 36.4663 27.2628 36.2018 27.5513 35.8797L27.5515 35.8795C27.9811 35.3983 28.1774 35.4799 28.5338 35.6277C28.8226 35.7472 29.1038 36.1091 29.2178 36.5075C29.2718 36.6957 29.3323 37.0528 29.1341 37.3307C27.4603 39.6746 25.0214 39.6446 23.2699 39.2061ZM35.7029 50.7782C32.7967 51.401 31.7676 49.9178 31.0896 48.2222C30.6518 47.1275 30.4368 42.1915 30.5894 36.7401C30.5912 36.6695 30.5817 36.5991 30.5611 36.5315C30.5431 36.4014 30.5159 36.2727 30.4798 36.1463C30.253 35.3531 29.6998 34.6898 29.0362 34.4147C28.7726 34.3055 28.2888 34.1051 27.7075 34.2537C27.8314 33.7427 28.0464 33.1658 28.2797 32.5408L28.3774 32.2783C28.4875 31.9819 28.6258 31.6749 28.7717 31.3499C29.5613 29.5953 30.6427 27.1922 29.4691 21.7629C29.0294 19.7294 27.5614 18.7363 25.3358 18.9669C24.0017 19.1051 22.781 19.6435 22.1722 19.9523C22.0501 20.0141 21.9293 20.0784 21.8098 20.1451C21.9797 18.0962 22.6217 14.267 25.0231 11.8444C26.5351 10.3192 28.549 9.5661 31.0025 9.60666C35.8368 9.68586 38.9369 12.1672 40.6865 14.2351C42.1939 16.0168 43.0104 17.812 43.3361 18.7802C40.8862 18.5308 39.2196 19.0147 38.375 20.2226C36.5374 22.8501 39.3804 27.9499 40.7467 30.4007C40.9973 30.85 41.2135 31.2381 41.2817 31.4032C41.7266 32.4818 42.3026 33.202 42.7231 33.7276C42.8522 33.8887 42.9773 34.0449 43.0723 34.1812C42.3302 34.3953 40.9973 34.8897 41.119 37.361C41.0208 38.6011 40.3243 44.4067 39.9703 46.4579C39.503 49.1678 38.5061 50.1767 35.7029 50.7782ZM47.8339 36.8927C47.0753 37.2451 45.8054 37.5093 44.599 37.5659C43.2667 37.6283 42.5885 37.4167 42.4289 37.2866C42.354 35.7465 42.9271 35.5857 43.5336 35.4153C43.6289 35.3884 43.7218 35.3623 43.8115 35.3311C43.8674 35.3764 43.9284 35.4215 43.9954 35.4657C45.0662 36.1727 46.9764 36.2488 49.673 35.692L49.7026 35.6863C49.3387 36.0263 48.7164 36.4828 47.8339 36.8927Z" fill="white"/>
</g>
</g>
</g>
</g>
</svg>
