<svg xmlns="http://www.w3.org/2000/svg" width="60" height="60" viewBox="0 0 60 60" fill="none">
  <path d="M56.0016 23.9796H37.1625C36.7084 23.9795 36.2729 23.799 35.9518 23.4779C35.6307 23.1568 35.4502 22.7214 35.4499 22.2673V2.63336C35.4499 1.17941 34.271 0 32.8177 0H26.0926C24.6384 0 23.4601 1.17941 23.4601 2.63336V22.1484C23.4601 23.1609 22.6416 23.9838 21.6291 23.9883L15.4553 24.0177C14.4342 24.0232 13.6046 23.1948 13.6066 22.1745L13.6449 2.63779C13.6482 1.18162 12.4688 0 11.0127 0H4.29312C2.83873 0 1.66064 1.17941 1.66064 2.63336V57.6111C1.66064 58.9027 2.70699 59.9491 3.99755 59.9491H56.0016C57.2933 59.9491 58.3396 58.9027 58.3396 57.6111V26.3176C58.3396 25.026 57.2933 23.9796 56.0016 23.9796ZM47.1672 44.6216C47.1672 46.3142 45.795 47.6867 44.1023 47.6867H38.7876C37.0947 47.6867 35.7225 46.3142 35.7225 44.6216V39.3069C35.7225 37.614 37.0947 36.2418 38.7876 36.2418H44.1023C45.795 36.2418 47.1672 37.614 47.1672 39.3069V44.6216Z" fill="#FF6600"/>
</svg>