<svg xmlns="http://www.w3.org/2000/svg" width="91" height="60" viewBox="0 0 91 60" fill="none">
  <path d="M49.0634 25.8003C49.0634 26.3482 48.6134 26.8371 48.0266 26.8371C47.5765 26.8371 47.1854 26.9546 46.8528 27.2089C46.4812 27.4438 46.1877 27.7762 45.9531 28.1478C45.4835 28.7739 45.249 29.5171 45.1511 29.7908V33.5076C45.1511 34.0749 44.6622 34.5444 44.0753 34.5444C43.508 34.5444 43.0386 34.0749 43.0386 33.5076V25.8003C43.0386 25.233 43.508 24.7831 44.0753 24.7831C44.6622 24.7831 45.1511 25.2332 45.1511 25.8003V25.9373C45.2684 25.8003 45.4249 25.644 45.5619 25.546C46.2075 25.1158 47.0485 24.7636 48.0266 24.7831C48.6134 24.7831 49.0634 25.2332 49.0634 25.8003ZM48.4897 29.6543C48.5094 26.9939 50.5829 24.7639 53.2626 24.7639C55.8057 24.7639 57.8204 26.6613 57.9771 29.302V29.3998C57.9771 29.439 57.9771 29.5366 57.9576 29.5758C57.8987 30.0454 57.488 30.3584 56.9402 30.3584H50.7197C50.8175 30.8085 51.0326 31.3169 51.3849 31.6495C51.7957 32.119 52.5781 32.4708 53.2626 32.5295C53.9668 32.5881 54.808 32.4122 55.2971 32.0406C55.7077 31.6101 56.5098 31.669 56.7641 31.9817C57.0184 32.2559 57.214 32.8427 56.7641 33.2533C55.8055 34.1333 54.6515 34.5443 53.2625 34.5443C50.5829 34.5251 48.5094 32.3146 48.4897 29.6543ZM50.622 28.6958H56.1578C55.9622 27.9133 54.9645 26.7593 53.2626 26.6223C51.6001 26.7004 50.7785 27.8938 50.622 28.6958ZM67.9424 33.4885C67.9424 34.0558 67.4729 34.5449 66.886 34.5449C66.3579 34.5449 65.9472 34.1733 65.8493 33.7037C65.1061 34.2122 64.1671 34.5449 63.1889 34.5449C60.5483 34.5449 58.4356 32.3149 58.4356 29.6741C58.4356 26.9941 60.5483 24.7641 63.1889 24.7641C64.1476 24.7641 65.0864 25.0769 65.8101 25.5856V21.9081C65.8101 21.3408 66.2796 20.8517 66.8859 20.8517C67.4727 20.8517 67.9423 21.3408 67.9423 21.9081L67.9424 33.4885ZM63.1891 26.8963C62.4849 26.8963 61.8393 27.1896 61.3505 27.6982C60.8615 28.1873 60.5679 28.8913 60.5679 29.6739C60.5679 30.4172 60.8613 31.1213 61.3505 31.6104C61.8393 32.1192 62.4849 32.4125 63.1891 32.4125C63.9128 32.4125 64.5389 32.1192 65.0278 31.6104C65.5167 31.1215 65.8102 30.4172 65.8102 29.6739C65.8102 28.8913 65.5169 28.1873 65.0278 27.6982C64.5389 27.1896 63.9128 26.8963 63.1891 26.8963ZM71.6647 22.3188C71.6647 22.9057 71.2148 23.3946 70.6082 23.3946C70.0214 23.3946 69.552 22.9057 69.552 22.3188V21.908C69.5514 21.7691 69.5783 21.6315 69.6312 21.5031C69.6841 21.3746 69.7618 21.258 69.86 21.1597C69.9582 21.0615 70.0749 20.9837 70.2033 20.9308C70.3317 20.878 70.4694 20.851 70.6082 20.8516C71.2148 20.8516 71.6647 21.3211 71.6647 21.908V22.3188ZM71.6647 25.8594V33.4883C71.6647 34.0752 71.2148 34.5447 70.6082 34.5447C70.4694 34.5453 70.3317 34.5184 70.2033 34.4655C70.0749 34.4126 69.9582 34.3348 69.86 34.2366C69.7618 34.1384 69.6841 34.0217 69.6312 33.8933C69.5783 33.7648 69.5514 33.6272 69.552 33.4883V25.8594C69.552 25.2335 70.0214 24.7834 70.6082 24.7834C71.2149 24.7834 71.6647 25.2335 71.6647 25.8594ZM73.0088 31.7462C73.3609 31.2769 74.0457 31.2182 74.4759 31.5898C74.9845 32.0203 75.8649 32.4699 76.6277 32.4505C77.1558 32.4505 77.6449 32.2746 77.9579 32.0789C78.2317 31.8441 78.3098 31.6487 78.3098 31.492C78.3098 31.3943 78.2903 31.3552 78.2513 31.2963C78.2316 31.2377 78.1535 31.1595 77.9968 31.0619C77.723 30.8661 77.1361 30.6509 76.4319 30.514H76.4124C75.8059 30.3967 75.219 30.2402 74.7106 30.0053C74.1824 29.7511 73.7129 29.399 73.3608 28.8709C73.1457 28.5188 73.0284 28.0885 73.0284 27.6386C73.0284 26.7387 73.537 25.9758 74.1824 25.4867C74.8671 25.0173 75.6887 24.763 76.5886 24.763C77.9382 24.763 78.8967 25.4086 79.5228 25.8388C79.9923 26.1518 80.1292 26.7974 79.8357 27.2862C79.5228 27.7558 78.8772 27.8927 78.3883 27.5602C77.7623 27.1495 77.2145 26.8363 76.5886 26.8363C76.0995 26.8363 75.6692 26.9928 75.4149 27.1884C75.1606 27.3646 75.102 27.5407 75.102 27.6384C75.102 27.7166 75.102 27.7362 75.141 27.7948C75.1607 27.8339 75.2193 27.9121 75.3563 27.9904C75.6108 28.1664 76.1192 28.3425 76.7843 28.4599L76.8039 28.4796H76.8235C77.4691 28.5968 78.0755 28.773 78.6427 29.0468C79.1708 29.2816 79.6991 29.6532 80.0317 30.2009C80.2665 30.592 80.4033 31.042 80.4033 31.4919C80.4033 32.4504 79.8752 33.2525 79.1709 33.7609C78.4667 34.2499 77.5863 34.5435 76.6278 34.5435C75.1021 34.524 73.9284 33.8198 73.146 33.1939C72.7155 32.8418 72.6569 32.1765 73.0088 31.7462Z" fill="#636466"/>
  <path d="M35.9138 35.9828C34.5397 36.6991 27.421 39.626 25.9055 40.416C24.39 41.2064 23.548 41.1986 22.3508 40.6263C21.1537 40.054 13.5781 36.994 12.2135 36.3417C11.5314 36.0157 11.1729 35.7406 11.1729 35.4807V32.8779C11.1729 32.8779 21.0351 30.7309 22.6274 30.1597C24.2195 29.5885 24.7719 29.5679 26.1268 30.0642C27.4819 30.5606 35.5836 32.0224 36.9227 32.5128L36.9221 35.0787C36.9223 35.336 36.6133 35.6183 35.9138 35.9828Z" fill="#A41E11"/>
  <path d="M35.9137 33.3793C34.5395 34.0953 27.4209 37.0225 25.9053 37.8125C24.3898 38.6029 23.5479 38.5951 22.3507 38.0228C21.1533 37.4508 13.578 34.3902 12.2134 33.7382C10.8488 33.086 10.8201 32.637 12.1607 32.1122C13.5011 31.5871 21.035 28.6313 22.6274 28.06C24.2195 27.489 24.7719 27.4681 26.1268 27.9646C27.4819 28.461 34.558 31.2776 35.897 31.768C37.2364 32.2589 37.2878 32.6631 35.9137 33.3793Z" fill="#D82C20"/>
  <path d="M35.9138 31.7386C34.5397 32.4549 27.421 35.3818 25.9055 36.1722C24.39 36.9622 23.548 36.9544 22.3508 36.3821C21.1535 35.8101 13.5781 32.7498 12.2135 32.0975C11.5314 31.7715 11.1729 31.4968 11.1729 31.2369V28.6337C11.1729 28.6337 21.0351 26.4868 22.6274 25.9156C24.2195 25.3444 24.7719 25.3237 26.1268 25.82C27.4819 26.3164 35.5836 27.7779 36.9227 28.2685L36.9221 30.8347C36.9223 31.0918 36.6133 31.3741 35.9138 31.7386Z" fill="#A41E11"/>
  <path d="M35.9137 29.1351C34.5395 29.8514 27.4209 32.7783 25.9053 33.5686C24.3898 34.3586 23.5479 34.3509 22.3507 33.7786C21.1533 33.2066 13.578 30.1461 12.2134 29.494C10.8488 28.8419 10.8201 28.393 12.1607 27.8678C13.5011 27.343 21.035 24.3871 22.6274 23.8159C24.2195 23.2448 24.7719 23.2241 26.1268 23.7204C27.4819 24.2168 34.558 27.0332 35.897 27.5238C37.2364 28.0145 37.2878 28.4188 35.9137 29.1351Z" fill="#D82C20"/>
  <path d="M35.9138 27.3365C34.5397 28.0528 27.421 30.9799 25.9055 31.7702C24.39 32.5602 23.548 32.5525 22.3508 31.9802C21.1535 31.4081 13.5781 28.3477 12.2135 27.6956C11.5314 27.3695 11.1729 27.0947 11.1729 26.8349V24.2318C11.1729 24.2318 21.0351 22.0849 22.6274 21.5138C24.2195 20.9425 24.7719 20.9219 26.1268 21.4182C27.4819 21.9146 35.5836 23.3761 36.9227 23.8667L36.9221 26.4327C36.9223 26.6897 36.6133 26.972 35.9138 27.3365Z" fill="#A41E11"/>
  <path d="M35.9137 24.7332C34.5395 25.4494 27.4209 28.3765 25.9053 29.1667C24.3898 29.9567 23.5479 29.9489 22.3507 29.3768C21.1535 28.8046 13.578 25.7443 12.2134 25.0922C10.8488 24.4401 10.8201 23.991 12.1607 23.466C13.5011 22.9411 21.035 19.9854 22.6274 19.4141C24.2195 18.8428 24.7719 18.8223 26.1268 19.3188C27.4819 19.8151 34.558 22.6315 35.897 23.1221C37.2364 23.6125 37.2878 24.017 35.9137 24.7332Z" fill="#D82C20"/>
  <path d="M24.691 23.6598L23.8842 22.3186L21.3078 22.087L23.2302 21.3937L22.6535 20.3296L24.4533 21.0335L26.1502 20.4779L25.6915 21.5784L27.4217 22.2263L25.1905 22.4579L24.691 23.6598ZM26.3606 25.4141L24.5578 28.0571L20.3936 26.3299L26.3606 25.4141Z" fill="white"/>
  <path d="M18.7845 25.367C20.5458 25.367 21.9737 24.8135 21.9737 24.1308C21.9737 23.448 20.5458 22.8945 18.7845 22.8945C17.0231 22.8945 15.5952 23.448 15.5952 24.1308C15.5952 24.8135 17.0231 25.367 18.7845 25.367Z" fill="white"/>
  <path d="M30.0616 25.3445L30.0586 22.5547L33.5901 23.9503L30.0616 25.3445Z" fill="#7A0C00"/>
  <path d="M30.0618 25.3445L29.6788 25.4943L26.1519 24.1002L30.0587 22.5547L30.0618 25.3445Z" fill="#AD2115"/>
</svg>