<svg width="60" height="60" viewBox="0 0 60 60" fill="none" xmlns="http://www.w3.org/2000/svg">
<g id="rest-api 1" clip-path="url(#clip0_141_2101)">
<g id="Group">
<path id="Vector" d="M48 39C44.1 39 40.8 41.4 39.6 45H27C27 42.9 26.4 41.1 25.5 39.6L46.8 17.7C47.7 17.7 48.6 18 49.5 18C53.7 18 57 14.7 57 10.5C57 6.3 53.7 3 49.5 3C45.3 3 42 6.3 42 10.5C42 11.4 42.3 12.6 42.6 13.5L21.6 35.1C19.8 33.6 17.4 33 15 33V20.4C18.6 19.2 21 15.9 21 12C21 6.9 17.1 3 12 3C6.9 3 3 6.9 3 12C3 15.9 5.4 19.2 9 20.4V34.5C5.4 36.6 3 40.5 3 44.7C3 51.3 8.4 56.7 15 56.7C19.5 56.7 23.4 54.3 25.2 50.7H39.3C40.5 54 43.8 56.7 47.7 56.7C52.5 56.7 56.7 52.8 56.7 47.7C57 42.9 52.8 39 48 39Z" fill="black"/>
</g>
</g>
<defs>
<clipPath id="clip0_141_2101">
<rect width="60" height="60" fill="white"/>
</clipPath>
</defs>
</svg>
