<svg xmlns="http://www.w3.org/2000/svg" width="118" height="60" viewBox="0 0 118 60" fill="none">
  <g clip-path="url(#clip0_290_288)">
    <path d="M0 54.5026H3.8758V39.4834L9.87592 52.5814C10.5836 54.1603 11.5533 54.7276 13.4536 54.7276C15.3539 54.7276 16.2856 54.1665 16.9945 52.5814L22.9952 39.4834V54.5082H26.8716V39.5082C26.8716 38.0449 26.2741 37.3372 25.0448 36.9718C22.1008 36.0695 20.1252 36.85 19.2314 38.8011L13.3433 51.7276L7.64017 38.7955C6.78309 36.8443 4.77079 36.0639 1.82675 36.9661C0.596278 37.3321 0 38.0398 0 39.5026V54.5026ZM30.0931 42.2737H33.9677V50.5519C33.9315 51.0019 34.1148 52.0575 36.2379 52.0896C37.3213 52.1066 44.5985 52.0896 44.6662 52.0896V42.2325H48.5495C48.5667 42.2325 48.5455 55.6727 48.5461 55.7302C48.5673 59.0449 44.356 59.765 42.4156 59.8208H30.1775V57.2607L42.4374 57.2601C44.9316 57.0007 44.6375 55.7844 44.6375 55.3744V54.3763H36.3999C32.5672 54.3425 30.127 52.6998 30.0965 50.8107C30.0936 50.6415 30.1792 42.3549 30.0942 42.2731L30.0931 42.2737Z" fill="#00618A"/>
    <path d="M51.5371 54.5029H62.6803C63.9843 54.5029 65.2521 54.235 66.2591 53.7709C67.9365 53.0153 68.7562 51.9907 68.7562 50.6491V47.869C68.7562 46.7711 67.8244 45.7471 65.9988 45.0642C65.0298 44.6976 63.8372 44.5031 62.682 44.5031H57.9859C56.4211 44.5031 55.6754 44.0395 55.4893 43.0155C55.452 42.8937 55.452 42.7899 55.452 42.6737V40.9425C55.452 40.845 55.452 40.7469 55.4893 40.6251C55.6754 39.8446 56.0856 39.6247 57.4643 39.4972C57.5763 39.4972 57.7251 39.4724 57.8377 39.4724H68.9061V36.9365H58.0238C56.4584 36.9365 55.6387 37.0341 54.893 37.2534C52.5803 37.9611 51.5739 39.089 51.5739 41.0401V43.2596C51.5739 44.9672 53.55 46.4305 56.8657 46.7717C57.2391 46.7959 57.6113 46.8202 57.9836 46.8202H62.0087C62.1581 46.8202 62.3074 46.8202 62.4189 46.845C63.6482 46.9425 64.171 47.1619 64.5432 47.6006C64.773 47.8262 64.8419 48.0405 64.8419 48.2773V50.4969C64.8419 50.7653 64.6558 51.107 64.283 51.3991C63.9475 51.6924 63.3886 51.8869 62.6429 51.936C62.4936 51.936 62.3821 51.9602 62.2333 51.9602H51.5371V54.4967V54.5029ZM92.9342 50.0886C92.9342 52.6984 94.9091 54.1617 98.8969 54.4544C99.2689 54.4826 99.6418 54.4988 100.015 54.5029H110.115V51.9664H99.9401C97.667 51.9664 96.8094 51.4053 96.8094 50.0638V36.9416H92.9336V50.0875L92.9342 50.0886ZM71.2286 50.2205V41.1783C71.2286 38.8809 72.8716 37.4875 76.1206 37.0476C76.4671 36.999 76.8167 36.9745 77.1667 36.9743H84.5237C84.8861 36.9745 85.2481 36.999 85.6071 37.0476C88.8562 37.4875 90.4991 38.8803 90.4991 41.1783V50.2205C90.4991 52.0843 89.8011 53.0818 88.1927 53.732L92.0105 57.1155H87.5102L84.4214 54.3783L81.3119 54.5717H77.1667C76.4573 54.5717 75.7105 54.4736 74.8884 54.2536C72.4183 53.5939 71.2286 52.3228 71.2286 50.2205ZM75.4123 49.995C75.4123 50.1173 75.4497 50.2392 75.487 50.3863C75.7168 51.4375 76.7192 52.0239 78.2444 52.0239H81.7657L78.5316 49.1576H83.0318L85.8466 51.6574C86.3665 51.3856 86.7083 50.9694 86.8232 50.4354C86.8605 50.3136 86.8605 50.1912 86.8605 50.0689V41.3987C86.8605 41.3012 86.8605 41.1732 86.8232 41.0564C86.5934 40.0792 85.5904 39.517 84.0968 39.517H78.2513C76.5279 39.517 75.4135 40.2501 75.4135 41.3987V50.0017L75.4123 49.995Z" fill="#E48E00"/>
    <path d="M113.525 32.7334C111.142 32.6703 109.322 32.8874 107.766 33.5313C107.324 33.7146 106.619 33.7191 106.547 34.2633C106.79 34.5131 106.828 34.8864 107.021 35.1938C107.392 35.7842 108.02 36.5753 108.579 36.9892C109.19 37.4421 109.82 37.927 110.477 38.3201C111.643 39.0182 112.944 39.4169 114.067 40.1156C114.729 40.5272 115.386 41.046 116.032 41.5118C116.35 41.7419 116.566 42.0994 116.979 42.2432V42.1766C116.761 41.9043 116.705 41.5298 116.505 41.2462L115.625 40.3817C114.763 39.2539 113.671 38.2744 112.508 37.455C111.582 36.802 109.508 35.9201 109.121 34.861L109.053 34.7945C109.71 34.7212 110.479 34.4883 111.087 34.3293C112.105 34.0614 113.016 34.1302 114.068 33.8641L115.491 33.4648V33.1986C114.959 32.6629 114.58 31.9541 114 31.4697C112.484 30.2009 110.828 28.9349 109.123 27.8776C108.178 27.2911 107.009 26.911 106.007 26.4142C105.67 26.2473 105.077 26.1605 104.855 25.8819C104.329 25.2233 104.042 24.3876 103.636 23.6263C102.786 22.0191 101.951 20.2631 101.197 18.5719C100.683 17.4188 100.347 16.2813 99.7069 15.2466C96.6307 10.2819 93.319 7.28529 88.1903 4.34056C87.0989 3.71462 85.7851 3.4665 84.3961 3.14338L82.1603 3.01029C81.7054 2.8242 81.232 2.27721 80.8046 2.01217C79.1054 0.957661 74.7471 -1.3335 73.4884 1.67383C72.694 3.57589 74.6758 5.43172 75.3853 6.39601C75.8828 7.0727 76.5204 7.83003 76.8754 8.59074C77.1092 9.09037 77.15 9.59168 77.3499 10.1206C77.8422 11.4176 78.2707 12.8404 78.9078 14.0443C79.2295 14.6533 79.5845 15.2951 79.9918 15.8398C80.2417 16.1742 80.6696 16.3214 80.7368 16.8379C80.3186 17.4131 80.2945 18.3041 80.059 19.0327C79.0003 22.3101 79.3995 26.3832 80.9396 28.8092C81.4124 29.5535 82.5251 31.1505 84.056 30.5381C85.3945 30.0024 85.09 28.3445 85.4789 26.8806C85.5651 26.5479 85.5122 26.3054 85.6823 26.0827V26.1492L86.9018 28.543C87.8037 29.9697 89.4064 31.4612 90.7633 32.4678C91.467 32.9894 92.027 33.8917 92.9312 34.1968V34.1302H92.8634C92.6871 33.8595 92.4114 33.7485 92.1856 33.5325C91.6554 33.0221 91.0654 32.3877 90.6271 31.8035C89.3921 30.158 88.3017 28.358 87.308 26.483C86.8335 25.5881 86.4204 24.6007 86.0212 23.69C85.8672 23.3387 85.869 22.808 85.5473 22.6259C85.109 23.2936 84.4633 23.8327 84.1244 24.621C83.5821 25.8808 83.512 27.4169 83.3115 29.0105C83.1926 29.0522 83.2455 29.0235 83.1759 29.077C82.2327 28.8537 81.9007 27.9001 81.5503 27.0819C80.6633 25.0124 80.499 21.6819 81.2791 19.3011C81.4802 18.6853 82.3935 16.7443 82.0242 16.1753C81.8478 15.6075 81.2659 15.2731 80.9402 14.8445C80.5381 14.3088 80.1348 13.6016 79.8562 12.9825C79.1301 11.3697 78.7912 9.55954 78.0272 7.92815C77.6618 7.14883 77.0449 6.36048 76.537 5.67251C75.9752 4.90559 75.3462 4.33943 74.9114 3.41687C74.7563 3.08698 74.546 2.55973 74.7758 2.21969C74.7977 2.12199 74.8477 2.03249 74.9197 1.96175C74.9918 1.89101 75.083 1.84198 75.1825 1.82044C75.5754 1.52326 76.6703 1.91913 77.0793 2.08661C78.165 2.52984 79.0727 2.95165 79.9929 3.54995C80.4353 3.83191 80.8816 4.39356 81.4153 4.54807H82.0242C82.9778 4.76349 84.0462 4.61574 84.9366 4.88078C86.5118 5.35052 87.9226 6.08191 89.2048 6.87589C93.1099 9.2962 96.3021 12.7417 98.4862 16.8571C98.8377 17.5186 98.9894 18.1507 99.299 18.8522C99.9234 20.262 100.71 21.7242 101.331 23.108C101.952 24.4896 102.555 25.8825 103.432 27.0317C103.892 27.6351 105.672 27.9599 106.48 28.2949C107.047 28.53 107.975 28.7753 108.513 29.0928C109.538 29.7001 110.532 30.4236 111.494 31.0891C111.975 31.4218 113.453 32.1509 113.526 32.7515L113.525 32.7334Z" fill="#00618A"/>
    <path fill-rule="evenodd" clip-rule="evenodd" d="M83.243 7.39566C82.7461 7.38664 82.3951 7.44867 82.0234 7.52874V7.59528H82.0912C82.3279 8.07348 82.7461 8.38081 83.0391 8.79246L83.7169 10.1887L83.7847 10.1222C84.204 9.83175 84.3965 9.36765 84.3936 8.65882C84.2253 8.48513 84.2006 8.26746 84.0547 8.05994C83.8611 7.78363 83.4802 7.62686 83.2418 7.39453L83.243 7.39566Z" fill="#00618A"/>
    <path fill-rule="evenodd" clip-rule="evenodd" d="M111.934 51.8941C111.934 53.5689 113.282 54.6979 114.79 54.6979C116.298 54.6979 117.646 53.5689 117.646 51.8941C117.646 50.2193 116.298 49.0903 114.79 49.0903C113.282 49.0903 111.934 50.2193 111.934 51.8941ZM117.006 51.8941C117.006 53.1651 116.017 54.1148 114.789 54.1148C113.548 54.1148 112.572 53.1651 112.572 51.8941C112.572 50.623 113.547 49.6734 114.789 49.6734C116.016 49.6734 117.006 50.623 117.006 51.8941ZM115.559 53.4945H116.198L115.262 52.0892C115.765 52.0368 116.145 51.7971 116.145 51.214C116.145 50.5633 115.725 50.2948 114.919 50.2948H113.647V53.495H114.195V52.1118H114.705L115.558 53.495L115.559 53.4945ZM114.195 51.6618V50.7426H114.827C115.154 50.7426 115.551 50.8024 115.551 51.1768C115.551 51.6251 115.193 51.6629 114.781 51.6629H114.195V51.6618Z" fill="#E48E00"/>
  </g>
  <defs>
    <clipPath id="clip0_290_288">
      <rect width="117.647" height="60" fill="white"/>
    </clipPath>
  </defs>
</svg>