<svg xmlns="http://www.w3.org/2000/svg" width="61" height="60" viewBox="0 0 61 60" fill="none">
  <path d="M30.8064 0C32.5011 0.0031133 34.1679 0.146325 35.7881 0.417183V17.8828L48.1705 5.53234C49.5381 6.50368 50.8175 7.584 52.0004 8.76395C53.1838 9.9439 54.2702 11.2235 55.2439 12.5871L42.861 24.9376H60.3723C60.644 26.5534 60.7876 28.2097 60.7876 29.9033V29.9438C60.7876 31.6374 60.644 33.2968 60.3723 34.9126H42.858L55.2439 47.26C54.2702 48.6236 53.1838 49.9032 52.0039 51.0831H52.0004C50.8175 52.2631 49.5381 53.3465 48.1741 54.3147L35.7881 41.9642V59.4299C34.1709 59.7008 32.5041 59.8438 30.8093 59.8473H30.7658C29.0705 59.8438 27.4103 59.7008 25.79 59.4299V41.9642L13.4077 54.3147C10.6731 52.3751 8.28231 49.9872 6.33429 47.26L18.7172 34.9126H1.20592C0.931211 33.2936 0.787598 31.628 0.787598 29.9344V29.8475C0.790444 29.408 0.819224 28.871 0.860561 28.3155L0.873326 28.1484C0.995722 26.5849 1.20592 24.9376 1.20592 24.9376H18.7172L6.33429 12.5871C7.30502 11.2235 8.38838 9.947 9.57125 8.77021L9.57721 8.76395C10.7577 7.584 12.0401 6.50368 13.4077 5.53234L25.79 17.8828V0.417183C27.4103 0.146325 29.0741 0.0031133 30.7718 0H30.8064ZM30.8034 22.4438H30.7748C28.5461 22.4438 26.4116 22.8516 24.4385 23.5926C23.699 25.5571 23.2896 27.6866 23.2866 29.9095V29.9375C23.2896 32.1604 23.699 34.2899 24.4415 36.2544C26.4116 36.9954 28.5461 37.4033 30.7748 37.4033H30.8034C33.0321 37.4033 35.1666 36.9954 37.1367 36.2544C37.8792 34.2868 38.2886 32.1604 38.2886 29.9375V29.9095C38.2886 27.6866 37.8792 25.5571 37.1367 23.5926C35.1666 22.8516 33.0321 22.4438 30.8034 22.4438Z" fill="#FF4A00"/>
</svg>